<svg width="320" height="97" viewBox="0 0 320 97" fill="none" xmlns="http://www.w3.org/2000/svg">
<path d="M31.7728 46.2005H38.5128V48.7205H31.7728V46.2005ZM32.0128 51.9605H39.6328V54.5605H28.7928V40.5605H39.3728V43.1605H32.0128V51.9605ZM46.2736 54.7205C45.0069 54.7205 44.0203 54.4005 43.3136 53.7605C42.6069 53.1072 42.2536 52.1405 42.2536 50.8605V41.4205H45.3736V50.8205C45.3736 51.2739 45.4936 51.6272 45.7336 51.8805C45.9736 52.1205 46.3003 52.2405 46.7136 52.2405C47.2069 52.2405 47.6269 52.1072 47.9736 51.8405L48.8136 54.0405C48.4936 54.2672 48.1069 54.4405 47.6536 54.5605C47.2136 54.6672 46.7536 54.7205 46.2736 54.7205ZM40.5936 46.4405V44.0405H48.0536V46.4405H40.5936ZM57.165 54.5605V52.4605L56.965 52.0005V48.2405C56.965 47.5739 56.7583 47.0539 56.345 46.6805C55.945 46.3072 55.325 46.1205 54.485 46.1205C53.9117 46.1205 53.345 46.2139 52.785 46.4005C52.2383 46.5739 51.7717 46.8139 51.385 47.1205L50.265 44.9405C50.8517 44.5272 51.5583 44.2072 52.385 43.9805C53.2117 43.7539 54.0517 43.6405 54.905 43.6405C56.545 43.6405 57.8183 44.0272 58.725 44.8005C59.6317 45.5739 60.085 46.7805 60.085 48.4205V54.5605H57.165ZM53.885 54.7205C53.045 54.7205 52.325 54.5805 51.725 54.3005C51.125 54.0072 50.665 53.6139 50.345 53.1205C50.025 52.6272 49.865 52.0739 49.865 51.4605C49.865 50.8205 50.0183 50.2605 50.325 49.7805C50.645 49.3005 51.145 48.9272 51.825 48.6605C52.505 48.3805 53.3917 48.2405 54.485 48.2405H57.345V50.0605H54.825C54.0917 50.0605 53.585 50.1805 53.305 50.4205C53.0383 50.6605 52.905 50.9605 52.905 51.3205C52.905 51.7205 53.0583 52.0405 53.365 52.2805C53.685 52.5072 54.1183 52.6205 54.665 52.6205C55.185 52.6205 55.6517 52.5005 56.065 52.2605C56.4783 52.0072 56.7783 51.6405 56.965 51.1605L57.445 52.6005C57.2183 53.2939 56.805 53.8205 56.205 54.1805C55.605 54.5405 54.8317 54.7205 53.885 54.7205ZM69.2688 54.7205C68.3621 54.7205 67.5688 54.5205 66.8888 54.1205C66.2088 53.7205 65.6754 53.1139 65.2888 52.3005C64.9154 51.4739 64.7288 50.4339 64.7288 49.1805C64.7288 47.9139 64.9088 46.8739 65.2688 46.0605C65.6288 45.2472 66.1488 44.6405 66.8288 44.2405C67.5088 43.8405 68.3221 43.6405 69.2688 43.6405C70.2821 43.6405 71.1888 43.8739 71.9888 44.3405C72.8021 44.7939 73.4421 45.4339 73.9088 46.2605C74.3888 47.0872 74.6288 48.0605 74.6288 49.1805C74.6288 50.3139 74.3888 51.2939 73.9088 52.1205C73.4421 52.9472 72.8021 53.5872 71.9888 54.0405C71.1888 54.4939 70.2821 54.7205 69.2688 54.7205ZM62.9088 58.4405V43.8005H65.8888V46.0005L65.8288 49.2005L66.0288 52.3805V58.4405H62.9088ZM68.7288 52.1605C69.2488 52.1605 69.7088 52.0405 70.1088 51.8005C70.5221 51.5605 70.8488 51.2205 71.0888 50.7805C71.3421 50.3272 71.4688 49.7939 71.4688 49.1805C71.4688 48.5539 71.3421 48.0205 71.0888 47.5805C70.8488 47.1405 70.5221 46.8005 70.1088 46.5605C69.7088 46.3205 69.2488 46.2005 68.7288 46.2005C68.2088 46.2005 67.7421 46.3205 67.3288 46.5605C66.9154 46.8005 66.5888 47.1405 66.3488 47.5805C66.1088 48.0205 65.9888 48.5539 65.9888 49.1805C65.9888 49.7939 66.1088 50.3272 66.3488 50.7805C66.5888 51.2205 66.9154 51.5605 67.3288 51.8005C67.7421 52.0405 68.2088 52.1605 68.7288 52.1605ZM82.0573 54.7205C80.8307 54.7205 79.7507 54.4805 78.8173 54.0005C77.8973 53.5205 77.184 52.8672 76.6773 52.0405C76.1707 51.2005 75.9173 50.2472 75.9173 49.1805C75.9173 48.1005 76.164 47.1472 76.6573 46.3205C77.164 45.4805 77.8507 44.8272 78.7173 44.3605C79.584 43.8805 80.564 43.6405 81.6573 43.6405C82.7107 43.6405 83.6573 43.8672 84.4973 44.3205C85.3507 44.7605 86.024 45.4005 86.5173 46.2405C87.0107 47.0672 87.2573 48.0605 87.2573 49.2205C87.2573 49.3405 87.2507 49.4805 87.2373 49.6405C87.224 49.7872 87.2107 49.9272 87.1973 50.0605H78.4573V48.2405H85.5573L84.3573 48.7805C84.3573 48.2205 84.244 47.7339 84.0173 47.3205C83.7907 46.9072 83.4773 46.5872 83.0773 46.3605C82.6773 46.1205 82.2107 46.0005 81.6773 46.0005C81.144 46.0005 80.6707 46.1205 80.2573 46.3605C79.8573 46.5872 79.544 46.9139 79.3173 47.3405C79.0907 47.7539 78.9773 48.2472 78.9773 48.8205V49.3005C78.9773 49.8872 79.104 50.4072 79.3573 50.8605C79.624 51.3005 79.9907 51.6405 80.4573 51.8805C80.9373 52.1072 81.4973 52.2205 82.1373 52.2205C82.7107 52.2205 83.2107 52.1339 83.6373 51.9605C84.0773 51.7872 84.4773 51.5272 84.8373 51.1805L86.4973 52.9805C86.004 53.5405 85.384 53.9739 84.6373 54.2805C83.8907 54.5739 83.0307 54.7205 82.0573 54.7205ZM96.4986 54.5605V41.7605L97.8986 43.1605H93.6986V40.5605H99.7386V54.5605H96.4986ZM109.675 47.5405C109.141 47.5405 108.681 47.3605 108.295 47.0005C107.921 46.6272 107.735 46.1539 107.735 45.5805C107.735 45.0072 107.921 44.5472 108.295 44.2005C108.681 43.8405 109.141 43.6605 109.675 43.6605C110.221 43.6605 110.681 43.8405 111.055 44.2005C111.428 44.5472 111.615 45.0072 111.615 45.5805C111.615 46.1539 111.428 46.6272 111.055 47.0005C110.681 47.3605 110.221 47.5405 109.675 47.5405ZM109.675 54.7205C109.141 54.7205 108.681 54.5405 108.295 54.1805C107.921 53.8072 107.735 53.3339 107.735 52.7605C107.735 52.1872 107.921 51.7272 108.295 51.3805C108.681 51.0205 109.141 50.8405 109.675 50.8405C110.221 50.8405 110.681 51.0205 111.055 51.3805C111.428 51.7272 111.615 52.1872 111.615 52.7605C111.615 53.3339 111.428 53.8072 111.055 54.1805C110.681 54.5405 110.221 54.7205 109.675 54.7205ZM126.313 54.6805C125.26 54.6805 124.286 54.5072 123.393 54.1605C122.5 53.8005 121.726 53.3005 121.073 52.6605C120.42 52.0205 119.906 51.2672 119.533 50.4005C119.173 49.5339 118.993 48.5872 118.993 47.5605C118.993 46.5339 119.173 45.5872 119.533 44.7205C119.906 43.8539 120.42 43.1005 121.073 42.4605C121.74 41.8205 122.52 41.3272 123.413 40.9805C124.306 40.6205 125.28 40.4405 126.333 40.4405C127.346 40.4405 128.3 40.6139 129.193 40.9605C130.086 41.2939 130.84 41.8005 131.453 42.4805L130.513 43.4205C129.94 42.8339 129.306 42.4139 128.613 42.1605C127.92 41.8939 127.173 41.7605 126.373 41.7605C125.533 41.7605 124.753 41.9072 124.033 42.2005C123.313 42.4805 122.686 42.8872 122.153 43.4205C121.62 43.9405 121.2 44.5539 120.893 45.2605C120.6 45.9539 120.453 46.7205 120.453 47.5605C120.453 48.4005 120.6 49.1739 120.893 49.8805C121.2 50.5739 121.62 51.1872 122.153 51.7205C122.686 52.2405 123.313 52.6472 124.033 52.9405C124.753 53.2205 125.533 53.3605 126.373 53.3605C127.173 53.3605 127.92 53.2272 128.613 52.9605C129.306 52.6939 129.94 52.2672 130.513 51.6805L131.453 52.6205C130.84 53.3005 130.086 53.8139 129.193 54.1605C128.3 54.5072 127.34 54.6805 126.313 54.6805ZM139.668 43.9605C140.521 43.9605 141.268 44.1272 141.908 44.4605C142.561 44.7805 143.068 45.2739 143.428 45.9405C143.801 46.6072 143.988 47.4472 143.988 48.4605V54.5605H142.568V48.6005C142.568 47.4939 142.288 46.6605 141.728 46.1005C141.181 45.5272 140.408 45.2405 139.408 45.2405C138.661 45.2405 138.008 45.3939 137.448 45.7005C136.901 45.9939 136.475 46.4272 136.168 47.0005C135.875 47.5605 135.728 48.2405 135.728 49.0405V54.5605H134.308V39.7205H135.728V46.9405L135.448 46.4005C135.781 45.6405 136.315 45.0472 137.048 44.6205C137.781 44.1805 138.655 43.9605 139.668 43.9605ZM154.404 54.5605V52.2405L154.344 51.8605V47.9805C154.344 47.0872 154.09 46.4005 153.584 45.9205C153.09 45.4405 152.35 45.2005 151.364 45.2005C150.684 45.2005 150.037 45.3139 149.424 45.5405C148.81 45.7672 148.29 46.0672 147.864 46.4405L147.224 45.3805C147.757 44.9272 148.397 44.5805 149.144 44.3405C149.89 44.0872 150.677 43.9605 151.504 43.9605C152.864 43.9605 153.91 44.3005 154.644 44.9805C155.39 45.6472 155.764 46.6672 155.764 48.0405V54.5605H154.404ZM150.784 54.6605C149.997 54.6605 149.31 54.5339 148.724 54.2805C148.15 54.0139 147.71 53.6539 147.404 53.2005C147.097 52.7339 146.944 52.2005 146.944 51.6005C146.944 51.0539 147.07 50.5605 147.324 50.1205C147.59 49.6672 148.017 49.3072 148.604 49.0405C149.204 48.7605 150.004 48.6205 151.004 48.6205H154.624V49.6805H151.044C150.03 49.6805 149.324 49.8605 148.924 50.2205C148.537 50.5805 148.344 51.0272 148.344 51.5605C148.344 52.1605 148.577 52.6405 149.044 53.0005C149.51 53.3605 150.164 53.5405 151.004 53.5405C151.804 53.5405 152.49 53.3605 153.064 53.0005C153.65 52.6272 154.077 52.0939 154.344 51.4005L154.664 52.3805C154.397 53.0739 153.93 53.6272 153.264 54.0405C152.61 54.4539 151.784 54.6605 150.784 54.6605ZM159.621 54.5605V44.0605H160.981V46.9205L160.841 46.4205C161.134 45.6205 161.627 45.0139 162.321 44.6005C163.014 44.1739 163.874 43.9605 164.901 43.9605V45.3405C164.847 45.3405 164.794 45.3405 164.741 45.3405C164.687 45.3272 164.634 45.3205 164.581 45.3205C163.474 45.3205 162.607 45.6605 161.981 46.3405C161.354 47.0072 161.041 47.9605 161.041 49.2005V54.5605H159.621ZM171.874 58.5405C170.914 58.5405 169.994 58.4005 169.114 58.1205C168.234 57.8405 167.521 57.4405 166.974 56.9205L167.694 55.8405C168.187 56.2805 168.794 56.6272 169.514 56.8805C170.247 57.1472 171.021 57.2805 171.834 57.2805C173.167 57.2805 174.147 56.9672 174.774 56.3405C175.401 55.7272 175.714 54.7672 175.714 53.4605V50.8405L175.914 49.0405L175.774 47.2405V44.0605H177.134V53.2805C177.134 55.0939 176.687 56.4205 175.794 57.2605C174.914 58.1139 173.607 58.5405 171.874 58.5405ZM171.614 54.1605C170.614 54.1605 169.714 53.9472 168.914 53.5205C168.114 53.0805 167.481 52.4739 167.014 51.7005C166.561 50.9272 166.334 50.0405 166.334 49.0405C166.334 48.0405 166.561 47.1605 167.014 46.4005C167.481 45.6272 168.114 45.0272 168.914 44.6005C169.714 44.1739 170.614 43.9605 171.614 43.9605C172.547 43.9605 173.387 44.1539 174.134 44.5405C174.881 44.9272 175.474 45.5005 175.914 46.2605C176.354 47.0205 176.574 47.9472 176.574 49.0405C176.574 50.1339 176.354 51.0605 175.914 51.8205C175.474 52.5805 174.881 53.1605 174.134 53.5605C173.387 53.9605 172.547 54.1605 171.614 54.1605ZM171.754 52.9005C172.527 52.9005 173.214 52.7405 173.814 52.4205C174.414 52.0872 174.887 51.6339 175.234 51.0605C175.581 50.4739 175.754 49.8005 175.754 49.0405C175.754 48.2805 175.581 47.6139 175.234 47.0405C174.887 46.4672 174.414 46.0205 173.814 45.7005C173.214 45.3672 172.527 45.2005 171.754 45.2005C170.994 45.2005 170.307 45.3672 169.694 45.7005C169.094 46.0205 168.621 46.4672 168.274 47.0405C167.941 47.6139 167.774 48.2805 167.774 49.0405C167.774 49.8005 167.941 50.4739 168.274 51.0605C168.621 51.6339 169.094 52.0872 169.694 52.4205C170.307 52.7405 170.994 52.9005 171.754 52.9005ZM185.545 54.6605C184.452 54.6605 183.492 54.4339 182.665 53.9805C181.839 53.5139 181.192 52.8805 180.725 52.0805C180.259 51.2672 180.025 50.3405 180.025 49.3005C180.025 48.2605 180.245 47.3405 180.685 46.5405C181.139 45.7405 181.752 45.1139 182.525 44.6605C183.312 44.1939 184.192 43.9605 185.165 43.9605C186.152 43.9605 187.025 44.1872 187.785 44.6405C188.559 45.0805 189.165 45.7072 189.605 46.5205C190.045 47.3205 190.265 48.2472 190.265 49.3005C190.265 49.3672 190.259 49.4405 190.245 49.5205C190.245 49.5872 190.245 49.6605 190.245 49.7405H181.105V48.6805H189.485L188.925 49.1005C188.925 48.3405 188.759 47.6672 188.425 47.0805C188.105 46.4805 187.665 46.0139 187.105 45.6805C186.545 45.3472 185.899 45.1805 185.165 45.1805C184.445 45.1805 183.799 45.3472 183.225 45.6805C182.652 46.0139 182.205 46.4805 181.885 47.0805C181.565 47.6805 181.405 48.3672 181.405 49.1405V49.3605C181.405 50.1605 181.579 50.8672 181.925 51.4805C182.285 52.0805 182.779 52.5539 183.405 52.9005C184.045 53.2339 184.772 53.4005 185.585 53.4005C186.225 53.4005 186.819 53.2872 187.365 53.0605C187.925 52.8339 188.405 52.4872 188.805 52.0205L189.605 52.9405C189.139 53.5005 188.552 53.9272 187.845 54.2205C187.152 54.5139 186.385 54.6605 185.545 54.6605ZM193.156 54.5605V44.0605H194.516V46.9205L194.376 46.4205C194.669 45.6205 195.162 45.0139 195.856 44.6005C196.549 44.1739 197.409 43.9605 198.436 43.9605V45.3405C198.382 45.3405 198.329 45.3405 198.276 45.3405C198.222 45.3272 198.169 45.3205 198.116 45.3205C197.009 45.3205 196.142 45.6605 195.516 46.3405C194.889 47.0072 194.576 47.9605 194.576 49.2005V54.5605H193.156ZM210.758 54.6605C209.864 54.6605 209.084 54.4939 208.418 54.1605C207.751 53.8272 207.231 53.3272 206.858 52.6605C206.498 51.9939 206.318 51.1605 206.318 50.1605V44.0605H207.738V50.0005C207.738 51.1205 208.011 51.9672 208.558 52.5405C209.118 53.1005 209.898 53.3805 210.898 53.3805C211.631 53.3805 212.264 53.2339 212.798 52.9405C213.344 52.6339 213.758 52.1939 214.038 51.6205C214.331 51.0472 214.478 50.3605 214.478 49.5605V44.0605H215.898V54.5605H214.537V51.6805L214.758 52.2005C214.424 52.9739 213.904 53.5805 213.198 54.0205C212.504 54.4472 211.691 54.6605 210.758 54.6605ZM225.215 43.9605C226.068 43.9605 226.815 44.1272 227.455 44.4605C228.108 44.7805 228.615 45.2739 228.975 45.9405C229.348 46.6072 229.535 47.4472 229.535 48.4605V54.5605H228.115V48.6005C228.115 47.4939 227.835 46.6605 227.275 46.1005C226.728 45.5272 225.955 45.2405 224.955 45.2405C224.208 45.2405 223.555 45.3939 222.995 45.7005C222.448 45.9939 222.022 46.4272 221.715 47.0005C221.422 47.5605 221.275 48.2405 221.275 49.0405V54.5605H219.855V44.0605H221.215V46.9405L220.995 46.4005C221.328 45.6405 221.862 45.0472 222.595 44.6205C223.328 44.1805 224.202 43.9605 225.215 43.9605ZM237.831 54.6605C236.737 54.6605 235.777 54.4339 234.951 53.9805C234.124 53.5139 233.477 52.8805 233.011 52.0805C232.544 51.2672 232.311 50.3405 232.311 49.3005C232.311 48.2605 232.531 47.3405 232.971 46.5405C233.424 45.7405 234.037 45.1139 234.811 44.6605C235.597 44.1939 236.477 43.9605 237.451 43.9605C238.437 43.9605 239.311 44.1872 240.071 44.6405C240.844 45.0805 241.451 45.7072 241.891 46.5205C242.331 47.3205 242.551 48.2472 242.551 49.3005C242.551 49.3672 242.544 49.4405 242.531 49.5205C242.531 49.5872 242.531 49.6605 242.531 49.7405H233.391V48.6805H241.771L241.211 49.1005C241.211 48.3405 241.044 47.6672 240.711 47.0805C240.391 46.4805 239.951 46.0139 239.391 45.6805C238.831 45.3472 238.184 45.1805 237.451 45.1805C236.731 45.1805 236.084 45.3472 235.511 45.6805C234.937 46.0139 234.491 46.4805 234.171 47.0805C233.851 47.6805 233.691 48.3672 233.691 49.1405V49.3605C233.691 50.1605 233.864 50.8672 234.211 51.4805C234.571 52.0805 235.064 52.5539 235.691 52.9005C236.331 53.2339 237.057 53.4005 237.871 53.4005C238.511 53.4005 239.104 53.2872 239.651 53.0605C240.211 52.8339 240.691 52.4872 241.091 52.0205L241.891 52.9405C241.424 53.5005 240.837 53.9272 240.131 54.2205C239.437 54.5139 238.671 54.6605 237.831 54.6605ZM250.915 54.5605V42.7405C250.915 41.8072 251.189 41.0539 251.735 40.4805C252.282 39.9072 253.069 39.6205 254.095 39.6205C254.495 39.6205 254.882 39.6739 255.255 39.7805C255.629 39.8872 255.942 40.0539 256.195 40.2805L255.715 41.3405C255.515 41.1672 255.282 41.0405 255.015 40.9605C254.749 40.8672 254.462 40.8205 254.155 40.8205C253.555 40.8205 253.095 40.9872 252.775 41.3205C252.455 41.6539 252.295 42.1472 252.295 42.8005V44.4005L252.335 45.0605V54.5605H250.915ZM249.035 45.2405V44.0605H255.535V45.2405H249.035ZM263.837 54.5605V52.2405L263.777 51.8605V47.9805C263.777 47.0872 263.524 46.4005 263.017 45.9205C262.524 45.4405 261.784 45.2005 260.797 45.2005C260.117 45.2005 259.471 45.3139 258.857 45.5405C258.244 45.7672 257.724 46.0672 257.297 46.4405L256.657 45.3805C257.191 44.9272 257.831 44.5805 258.577 44.3405C259.324 44.0872 260.111 43.9605 260.937 43.9605C262.297 43.9605 263.344 44.3005 264.077 44.9805C264.824 45.6472 265.197 46.6672 265.197 48.0405V54.5605H263.837ZM260.217 54.6605C259.431 54.6605 258.744 54.5339 258.157 54.2805C257.584 54.0139 257.144 53.6539 256.837 53.2005C256.531 52.7339 256.377 52.2005 256.377 51.6005C256.377 51.0539 256.504 50.5605 256.757 50.1205C257.024 49.6672 257.451 49.3072 258.037 49.0405C258.637 48.7605 259.437 48.6205 260.437 48.6205H264.057V49.6805H260.477C259.464 49.6805 258.757 49.8605 258.357 50.2205C257.971 50.5805 257.777 51.0272 257.777 51.5605C257.777 52.1605 258.011 52.6405 258.477 53.0005C258.944 53.3605 259.597 53.5405 260.437 53.5405C261.237 53.5405 261.924 53.3605 262.497 53.0005C263.084 52.6272 263.511 52.0939 263.777 51.4005L264.097 52.3805C263.831 53.0739 263.364 53.6272 262.697 54.0405C262.044 54.4539 261.217 54.6605 260.217 54.6605ZM273.414 54.6605C272.374 54.6605 271.441 54.4339 270.614 53.9805C269.801 53.5139 269.161 52.8805 268.694 52.0805C268.228 51.2672 267.994 50.3405 267.994 49.3005C267.994 48.2472 268.228 47.3205 268.694 46.5205C269.161 45.7205 269.801 45.0939 270.614 44.6405C271.441 44.1872 272.374 43.9605 273.414 43.9605C274.308 43.9605 275.114 44.1339 275.834 44.4805C276.554 44.8272 277.121 45.3472 277.534 46.0405L276.474 46.7605C276.114 46.2272 275.668 45.8339 275.134 45.5805C274.601 45.3272 274.021 45.2005 273.394 45.2005C272.648 45.2005 271.974 45.3739 271.374 45.7205C270.774 46.0539 270.301 46.5272 269.954 47.1405C269.608 47.7539 269.434 48.4739 269.434 49.3005C269.434 50.1272 269.608 50.8472 269.954 51.4605C270.301 52.0739 270.774 52.5539 271.374 52.9005C271.974 53.2339 272.648 53.4005 273.394 53.4005C274.021 53.4005 274.601 53.2739 275.134 53.0205C275.668 52.7672 276.114 52.3805 276.474 51.8605L277.534 52.5805C277.121 53.2605 276.554 53.7805 275.834 54.1405C275.114 54.4872 274.308 54.6605 273.414 54.6605ZM283.761 54.6605C282.774 54.6605 282.014 54.3939 281.481 53.8605C280.948 53.3272 280.681 52.5739 280.681 51.6005V41.7405H282.101V51.5205C282.101 52.1339 282.254 52.6072 282.561 52.9405C282.881 53.2739 283.334 53.4405 283.921 53.4405C284.548 53.4405 285.068 53.2605 285.481 52.9005L285.981 53.9205C285.701 54.1739 285.361 54.3605 284.961 54.4805C284.574 54.6005 284.174 54.6605 283.761 54.6605ZM278.801 45.2405V44.0605H285.301V45.2405H278.801ZM292.906 54.6605C292.013 54.6605 291.233 54.4939 290.566 54.1605C289.899 53.8272 289.379 53.3272 289.006 52.6605C288.646 51.9939 288.466 51.1605 288.466 50.1605V44.0605H289.886V50.0005C289.886 51.1205 290.159 51.9672 290.706 52.5405C291.266 53.1005 292.046 53.3805 293.046 53.3805C293.779 53.3805 294.413 53.2339 294.946 52.9405C295.493 52.6339 295.906 52.1939 296.186 51.6205C296.479 51.0472 296.626 50.3605 296.626 49.5605V44.0605H298.046V54.5605H296.686V51.6805L296.906 52.2005C296.573 52.9739 296.053 53.5805 295.346 54.0205C294.653 54.4472 293.839 54.6605 292.906 54.6605ZM302.003 54.5605V44.0605H303.363V46.9205L303.223 46.4205C303.517 45.6205 304.01 45.0139 304.703 44.6005C305.397 44.1739 306.257 43.9605 307.283 43.9605V45.3405C307.23 45.3405 307.177 45.3405 307.123 45.3405C307.07 45.3272 307.017 45.3205 306.963 45.3205C305.857 45.3205 304.99 45.6605 304.363 46.3405C303.737 47.0072 303.423 47.9605 303.423 49.2005V54.5605H302.003ZM314.237 54.6605C313.144 54.6605 312.184 54.4339 311.357 53.9805C310.53 53.5139 309.884 52.8805 309.417 52.0805C308.95 51.2672 308.717 50.3405 308.717 49.3005C308.717 48.2605 308.937 47.3405 309.377 46.5405C309.83 45.7405 310.444 45.1139 311.217 44.6605C312.004 44.1939 312.884 43.9605 313.857 43.9605C314.844 43.9605 315.717 44.1872 316.477 44.6405C317.25 45.0805 317.857 45.7072 318.297 46.5205C318.737 47.3205 318.957 48.2472 318.957 49.3005C318.957 49.3672 318.95 49.4405 318.937 49.5205C318.937 49.5872 318.937 49.6605 318.937 49.7405H309.797V48.6805H318.177L317.617 49.1005C317.617 48.3405 317.45 47.6672 317.117 47.0805C316.797 46.4805 316.357 46.0139 315.797 45.6805C315.237 45.3472 314.59 45.1805 313.857 45.1805C313.137 45.1805 312.49 45.3472 311.917 45.6805C311.344 46.0139 310.897 46.4805 310.577 47.0805C310.257 47.6805 310.097 48.3672 310.097 49.1405V49.3605C310.097 50.1605 310.27 50.8672 310.617 51.4805C310.977 52.0805 311.47 52.5539 312.097 52.9005C312.737 53.2339 313.464 53.4005 314.277 53.4005C314.917 53.4005 315.51 53.2872 316.057 53.0605C316.617 52.8339 317.097 52.4872 317.497 52.0205L318.297 52.9405C317.83 53.5005 317.244 53.9272 316.537 54.2205C315.844 54.5139 315.077 54.6605 314.237 54.6605Z" fill="black"/>
<path d="M70.0005 27.5606C26.8114 20.1275 -24.1195 66.6667 20 76.4905C64.1195 86.3142 101.371 67.6304 114.481 57.0605C124.807 48.2611 132.047 19.4812 103.152 20.4235" stroke="#F4D465" stroke-width="5"/>
</svg>
