<svg width="395" height="97" viewBox="0 0 395 97" fill="none" xmlns="http://www.w3.org/2000/svg">
<path d="M40.125 46.2005H46.865V48.7205H40.125V46.2005ZM40.365 51.9605H47.985V54.5605H37.145V40.5605H47.725V43.1605H40.365V51.9605ZM54.6258 54.7205C53.3591 54.7205 52.3724 54.4005 51.6658 53.7605C50.9591 53.1072 50.6058 52.1405 50.6058 50.8605V41.4205H53.7258V50.8205C53.7258 51.2739 53.8458 51.6272 54.0858 51.8805C54.3258 52.1205 54.6524 52.2405 55.0658 52.2405C55.5591 52.2405 55.9791 52.1072 56.3258 51.8405L57.1658 54.0405C56.8458 54.2672 56.4591 54.4405 56.0058 54.5605C55.5658 54.6672 55.1058 54.7205 54.6258 54.7205ZM48.9458 46.4405V44.0405H56.4058V46.4405H48.9458ZM65.5172 54.5605V52.4605L65.3172 52.0005V48.2405C65.3172 47.5739 65.1105 47.0539 64.6972 46.6805C64.2972 46.3072 63.6772 46.1205 62.8372 46.1205C62.2638 46.1205 61.6972 46.2139 61.1372 46.4005C60.5905 46.5739 60.1238 46.8139 59.7372 47.1205L58.6172 44.9405C59.2038 44.5272 59.9105 44.2072 60.7372 43.9805C61.5638 43.7539 62.4038 43.6405 63.2572 43.6405C64.8972 43.6405 66.1705 44.0272 67.0772 44.8005C67.9838 45.5739 68.4372 46.7805 68.4372 48.4205V54.5605H65.5172ZM62.2372 54.7205C61.3972 54.7205 60.6772 54.5805 60.0772 54.3005C59.4772 54.0072 59.0172 53.6139 58.6972 53.1205C58.3772 52.6272 58.2172 52.0739 58.2172 51.4605C58.2172 50.8205 58.3705 50.2605 58.6772 49.7805C58.9972 49.3005 59.4972 48.9272 60.1772 48.6605C60.8572 48.3805 61.7438 48.2405 62.8372 48.2405H65.6972V50.0605H63.1772C62.4438 50.0605 61.9372 50.1805 61.6572 50.4205C61.3905 50.6605 61.2572 50.9605 61.2572 51.3205C61.2572 51.7205 61.4105 52.0405 61.7172 52.2805C62.0372 52.5072 62.4705 52.6205 63.0172 52.6205C63.5372 52.6205 64.0038 52.5005 64.4172 52.2605C64.8305 52.0072 65.1305 51.6405 65.3172 51.1605L65.7972 52.6005C65.5705 53.2939 65.1572 53.8205 64.5572 54.1805C63.9572 54.5405 63.1838 54.7205 62.2372 54.7205ZM77.6209 54.7205C76.7143 54.7205 75.9209 54.5205 75.2409 54.1205C74.5609 53.7205 74.0276 53.1139 73.6409 52.3005C73.2676 51.4739 73.0809 50.4339 73.0809 49.1805C73.0809 47.9139 73.2609 46.8739 73.6209 46.0605C73.9809 45.2472 74.5009 44.6405 75.1809 44.2405C75.8609 43.8405 76.6743 43.6405 77.6209 43.6405C78.6343 43.6405 79.5409 43.8739 80.3409 44.3405C81.1543 44.7939 81.7943 45.4339 82.2609 46.2605C82.7409 47.0872 82.9809 48.0605 82.9809 49.1805C82.9809 50.3139 82.7409 51.2939 82.2609 52.1205C81.7943 52.9472 81.1543 53.5872 80.3409 54.0405C79.5409 54.4939 78.6343 54.7205 77.6209 54.7205ZM71.2609 58.4405V43.8005H74.2409V46.0005L74.1809 49.2005L74.3809 52.3805V58.4405H71.2609ZM77.0809 52.1605C77.6009 52.1605 78.0609 52.0405 78.4609 51.8005C78.8743 51.5605 79.2009 51.2205 79.4409 50.7805C79.6943 50.3272 79.8209 49.7939 79.8209 49.1805C79.8209 48.5539 79.6943 48.0205 79.4409 47.5805C79.2009 47.1405 78.8743 46.8005 78.4609 46.5605C78.0609 46.3205 77.6009 46.2005 77.0809 46.2005C76.5609 46.2005 76.0943 46.3205 75.6809 46.5605C75.2676 46.8005 74.9409 47.1405 74.7009 47.5805C74.4609 48.0205 74.3409 48.5539 74.3409 49.1805C74.3409 49.7939 74.4609 50.3272 74.7009 50.7805C74.9409 51.2205 75.2676 51.5605 75.6809 51.8005C76.0943 52.0405 76.5609 52.1605 77.0809 52.1605ZM90.4095 54.7205C89.1829 54.7205 88.1029 54.4805 87.1695 54.0005C86.2495 53.5205 85.5362 52.8672 85.0295 52.0405C84.5228 51.2005 84.2695 50.2472 84.2695 49.1805C84.2695 48.1005 84.5162 47.1472 85.0095 46.3205C85.5162 45.4805 86.2029 44.8272 87.0695 44.3605C87.9362 43.8805 88.9162 43.6405 90.0095 43.6405C91.0629 43.6405 92.0095 43.8672 92.8495 44.3205C93.7029 44.7605 94.3762 45.4005 94.8695 46.2405C95.3629 47.0672 95.6095 48.0605 95.6095 49.2205C95.6095 49.3405 95.6029 49.4805 95.5895 49.6405C95.5762 49.7872 95.5629 49.9272 95.5495 50.0605H86.8095V48.2405H93.9095L92.7095 48.7805C92.7095 48.2205 92.5962 47.7339 92.3695 47.3205C92.1429 46.9072 91.8295 46.5872 91.4295 46.3605C91.0295 46.1205 90.5629 46.0005 90.0295 46.0005C89.4962 46.0005 89.0229 46.1205 88.6095 46.3605C88.2095 46.5872 87.8962 46.9139 87.6695 47.3405C87.4429 47.7539 87.3295 48.2472 87.3295 48.8205V49.3005C87.3295 49.8872 87.4562 50.4072 87.7095 50.8605C87.9762 51.3005 88.3429 51.6405 88.8095 51.8805C89.2895 52.1072 89.8495 52.2205 90.4895 52.2205C91.0629 52.2205 91.5629 52.1339 91.9895 51.9605C92.4295 51.7872 92.8295 51.5272 93.1895 51.1805L94.8495 52.9805C94.3562 53.5405 93.7362 53.9739 92.9895 54.2805C92.2429 54.5739 91.3829 54.7205 90.4095 54.7205ZM102.571 54.5605V52.4605L107.971 47.3605C108.397 46.9739 108.711 46.6272 108.911 46.3205C109.111 46.0139 109.244 45.7339 109.311 45.4805C109.391 45.2272 109.431 44.9939 109.431 44.7805C109.431 44.2205 109.237 43.7939 108.851 43.5005C108.477 43.1939 107.924 43.0405 107.191 43.0405C106.604 43.0405 106.057 43.1539 105.551 43.3805C105.057 43.6072 104.637 43.9605 104.291 44.4405L101.931 42.9205C102.464 42.1205 103.211 41.4872 104.171 41.0205C105.131 40.5539 106.237 40.3205 107.491 40.3205C108.531 40.3205 109.437 40.4939 110.211 40.8405C110.997 41.1739 111.604 41.6472 112.031 42.2605C112.471 42.8739 112.691 43.6072 112.691 44.4605C112.691 44.9139 112.631 45.3672 112.511 45.8205C112.404 46.2605 112.177 46.7272 111.831 47.2205C111.497 47.7139 111.004 48.2672 110.351 48.8805L105.871 53.1005L105.251 51.9205H113.151V54.5605H102.571ZM121.992 47.5405C121.458 47.5405 120.998 47.3605 120.612 47.0005C120.238 46.6272 120.052 46.1539 120.052 45.5805C120.052 45.0072 120.238 44.5472 120.612 44.2005C120.998 43.8405 121.458 43.6605 121.992 43.6605C122.538 43.6605 122.998 43.8405 123.372 44.2005C123.745 44.5472 123.932 45.0072 123.932 45.5805C123.932 46.1539 123.745 46.6272 123.372 47.0005C122.998 47.3605 122.538 47.5405 121.992 47.5405ZM121.992 54.7205C121.458 54.7205 120.998 54.5405 120.612 54.1805C120.238 53.8072 120.052 53.3339 120.052 52.7605C120.052 52.1872 120.238 51.7272 120.612 51.3805C120.998 51.0205 121.458 50.8405 121.992 50.8405C122.538 50.8405 122.998 51.0205 123.372 51.3805C123.745 51.7272 123.932 52.1872 123.932 52.7605C123.932 53.3339 123.745 53.8072 123.372 54.1805C122.998 54.5405 122.538 54.7205 121.992 54.7205ZM136.53 54.5605L130.33 40.5605H131.93L137.73 53.7405H136.85L142.69 40.5605H144.19L137.99 54.5605H136.53ZM149.401 54.6605C148.388 54.6605 147.475 54.4339 146.661 53.9805C145.861 53.5139 145.228 52.8805 144.761 52.0805C144.295 51.2672 144.061 50.3405 144.061 49.3005C144.061 48.2472 144.295 47.3205 144.761 46.5205C145.228 45.7205 145.861 45.0939 146.661 44.6405C147.461 44.1872 148.375 43.9605 149.401 43.9605C150.441 43.9605 151.361 44.1872 152.161 44.6405C152.975 45.0939 153.608 45.7205 154.061 46.5205C154.528 47.3205 154.761 48.2472 154.761 49.3005C154.761 50.3405 154.528 51.2672 154.061 52.0805C153.608 52.8805 152.975 53.5139 152.161 53.9805C151.348 54.4339 150.428 54.6605 149.401 54.6605ZM149.401 53.4005C150.161 53.4005 150.835 53.2339 151.421 52.9005C152.008 52.5539 152.468 52.0739 152.801 51.4605C153.148 50.8339 153.321 50.1139 153.321 49.3005C153.321 48.4739 153.148 47.7539 152.801 47.1405C152.468 46.5272 152.008 46.0539 151.421 45.7205C150.835 45.3739 150.168 45.2005 149.421 45.2005C148.675 45.2005 148.008 45.3739 147.421 45.7205C146.835 46.0539 146.368 46.5272 146.021 47.1405C145.675 47.7539 145.501 48.4739 145.501 49.3005C145.501 50.1139 145.675 50.8339 146.021 51.4605C146.368 52.0739 146.835 52.5539 147.421 52.9005C148.008 53.2339 148.668 53.4005 149.401 53.4005ZM160.48 54.6605C159.614 54.6605 158.794 54.5405 158.02 54.3005C157.247 54.0472 156.64 53.7339 156.2 53.3605L156.84 52.2405C157.267 52.5605 157.814 52.8405 158.48 53.0805C159.147 53.3072 159.847 53.4205 160.58 53.4205C161.58 53.4205 162.3 53.2672 162.74 52.9605C163.18 52.6405 163.4 52.2205 163.4 51.7005C163.4 51.3139 163.274 51.0139 163.02 50.8005C162.78 50.5739 162.46 50.4072 162.06 50.3005C161.66 50.1805 161.214 50.0805 160.72 50.0005C160.227 49.9205 159.734 49.8272 159.24 49.7205C158.76 49.6139 158.32 49.4605 157.92 49.2605C157.52 49.0472 157.194 48.7605 156.94 48.4005C156.7 48.0405 156.58 47.5605 156.58 46.9605C156.58 46.3872 156.74 45.8739 157.06 45.4205C157.38 44.9672 157.847 44.6139 158.46 44.3605C159.087 44.0939 159.847 43.9605 160.74 43.9605C161.42 43.9605 162.1 44.0539 162.78 44.2405C163.46 44.4139 164.02 44.6472 164.46 44.9405L163.84 46.0805C163.374 45.7605 162.874 45.5339 162.34 45.4005C161.807 45.2539 161.274 45.1805 160.74 45.1805C159.794 45.1805 159.094 45.3472 158.64 45.6805C158.2 46.0005 157.98 46.4139 157.98 46.9205C157.98 47.3205 158.1 47.6339 158.34 47.8605C158.594 48.0872 158.92 48.2672 159.32 48.4005C159.734 48.5205 160.18 48.6205 160.66 48.7005C161.154 48.7805 161.64 48.8805 162.12 49.0005C162.614 49.1072 163.06 49.2605 163.46 49.4605C163.874 49.6472 164.2 49.9205 164.44 50.2805C164.694 50.6272 164.82 51.0872 164.82 51.6605C164.82 52.2739 164.647 52.8072 164.3 53.2605C163.967 53.7005 163.474 54.0472 162.82 54.3005C162.18 54.5405 161.4 54.6605 160.48 54.6605ZM176.84 54.6605C175.84 54.6605 174.94 54.4339 174.14 53.9805C173.354 53.5272 172.734 52.9005 172.28 52.1005C171.827 51.2872 171.6 50.3539 171.6 49.3005C171.6 48.2339 171.827 47.3005 172.28 46.5005C172.734 45.7005 173.354 45.0805 174.14 44.6405C174.94 44.1872 175.84 43.9605 176.84 43.9605C177.76 43.9605 178.58 44.1672 179.3 44.5805C180.034 44.9939 180.614 45.6005 181.04 46.4005C181.48 47.1872 181.7 48.1539 181.7 49.3005C181.7 50.4339 181.487 51.4005 181.06 52.2005C180.634 53.0005 180.054 53.6139 179.32 54.0405C178.6 54.4539 177.774 54.6605 176.84 54.6605ZM176.94 53.4005C177.687 53.4005 178.354 53.2339 178.94 52.9005C179.54 52.5539 180.007 52.0739 180.34 51.4605C180.687 50.8339 180.86 50.1139 180.86 49.3005C180.86 48.4739 180.687 47.7539 180.34 47.1405C180.007 46.5272 179.54 46.0539 178.94 45.7205C178.354 45.3739 177.687 45.2005 176.94 45.2005C176.207 45.2005 175.547 45.3739 174.96 45.7205C174.374 46.0539 173.907 46.5272 173.56 47.1405C173.214 47.7539 173.04 48.4739 173.04 49.3005C173.04 50.1139 173.214 50.8339 173.56 51.4605C173.907 52.0739 174.374 52.5539 174.96 52.9005C175.547 53.2339 176.207 53.4005 176.94 53.4005ZM180.9 54.5605V51.4005L181.04 49.2805L180.84 47.1605V39.7205H182.26V54.5605H180.9ZM190.495 54.6605C189.482 54.6605 188.568 54.4339 187.755 53.9805C186.955 53.5139 186.322 52.8805 185.855 52.0805C185.388 51.2672 185.155 50.3405 185.155 49.3005C185.155 48.2472 185.388 47.3205 185.855 46.5205C186.322 45.7205 186.955 45.0939 187.755 44.6405C188.555 44.1872 189.468 43.9605 190.495 43.9605C191.535 43.9605 192.455 44.1872 193.255 44.6405C194.068 45.0939 194.702 45.7205 195.155 46.5205C195.622 47.3205 195.855 48.2472 195.855 49.3005C195.855 50.3405 195.622 51.2672 195.155 52.0805C194.702 52.8805 194.068 53.5139 193.255 53.9805C192.442 54.4339 191.522 54.6605 190.495 54.6605ZM190.495 53.4005C191.255 53.4005 191.928 53.2339 192.515 52.9005C193.102 52.5539 193.562 52.0739 193.895 51.4605C194.242 50.8339 194.415 50.1139 194.415 49.3005C194.415 48.4739 194.242 47.7539 193.895 47.1405C193.562 46.5272 193.102 46.0539 192.515 45.7205C191.928 45.3739 191.262 45.2005 190.515 45.2005C189.768 45.2005 189.102 45.3739 188.515 45.7205C187.928 46.0539 187.462 46.5272 187.115 47.1405C186.768 47.7539 186.595 48.4739 186.595 49.3005C186.595 50.1139 186.768 50.8339 187.115 51.4605C187.462 52.0739 187.928 52.5539 188.515 52.9005C189.102 53.2339 189.762 53.4005 190.495 53.4005ZM204.114 43.9605C204.967 43.9605 205.714 44.1272 206.354 44.4605C207.007 44.7805 207.514 45.2739 207.874 45.9405C208.247 46.6072 208.434 47.4472 208.434 48.4605V54.5605H207.014V48.6005C207.014 47.4939 206.734 46.6605 206.174 46.1005C205.627 45.5272 204.854 45.2405 203.854 45.2405C203.107 45.2405 202.454 45.3939 201.894 45.7005C201.347 45.9939 200.921 46.4272 200.614 47.0005C200.321 47.5605 200.174 48.2405 200.174 49.0405V54.5605H198.754V44.0605H200.114V46.9405L199.894 46.4005C200.227 45.6405 200.761 45.0472 201.494 44.6205C202.227 44.1805 203.101 43.9605 204.114 43.9605ZM217.63 43.9605C218.483 43.9605 219.23 44.1272 219.87 44.4605C220.523 44.7805 221.03 45.2739 221.39 45.9405C221.763 46.6072 221.95 47.4472 221.95 48.4605V54.5605H220.53V48.6005C220.53 47.4939 220.25 46.6605 219.69 46.1005C219.143 45.5272 218.37 45.2405 217.37 45.2405C216.623 45.2405 215.97 45.3939 215.41 45.7005C214.863 45.9939 214.436 46.4272 214.13 47.0005C213.836 47.5605 213.69 48.2405 213.69 49.0405V54.5605H212.27V44.0605H213.63V46.9405L213.41 46.4005C213.743 45.6405 214.276 45.0472 215.01 44.6205C215.743 44.1805 216.616 43.9605 217.63 43.9605ZM230.245 54.6605C229.152 54.6605 228.192 54.4339 227.365 53.9805C226.539 53.5139 225.892 52.8805 225.425 52.0805C224.959 51.2672 224.725 50.3405 224.725 49.3005C224.725 48.2605 224.945 47.3405 225.385 46.5405C225.839 45.7405 226.452 45.1139 227.225 44.6605C228.012 44.1939 228.892 43.9605 229.865 43.9605C230.852 43.9605 231.725 44.1872 232.485 44.6405C233.259 45.0805 233.865 45.7072 234.305 46.5205C234.745 47.3205 234.965 48.2472 234.965 49.3005C234.965 49.3672 234.959 49.4405 234.945 49.5205C234.945 49.5872 234.945 49.6605 234.945 49.7405H225.805V48.6805H234.185L233.625 49.1005C233.625 48.3405 233.459 47.6672 233.125 47.0805C232.805 46.4805 232.365 46.0139 231.805 45.6805C231.245 45.3472 230.599 45.1805 229.865 45.1805C229.145 45.1805 228.499 45.3472 227.925 45.6805C227.352 46.0139 226.905 46.4805 226.585 47.0805C226.265 47.6805 226.105 48.3672 226.105 49.1405V49.3605C226.105 50.1605 226.279 50.8672 226.625 51.4805C226.985 52.0805 227.479 52.5539 228.105 52.9005C228.745 53.2339 229.472 53.4005 230.285 53.4005C230.925 53.4005 231.519 53.2872 232.065 53.0605C232.625 52.8339 233.105 52.4872 233.505 52.0205L234.305 52.9405C233.839 53.5005 233.252 53.9272 232.545 54.2205C231.852 54.5139 231.085 54.6605 230.245 54.6605ZM228.545 42.4205L231.285 39.9405H233.185L229.945 42.4205H228.545ZM242.316 54.6605C241.222 54.6605 240.262 54.4339 239.436 53.9805C238.609 53.5139 237.962 52.8805 237.496 52.0805C237.029 51.2672 236.796 50.3405 236.796 49.3005C236.796 48.2605 237.016 47.3405 237.456 46.5405C237.909 45.7405 238.522 45.1139 239.296 44.6605C240.082 44.1939 240.962 43.9605 241.936 43.9605C242.922 43.9605 243.796 44.1872 244.556 44.6405C245.329 45.0805 245.936 45.7072 246.376 46.5205C246.816 47.3205 247.036 48.2472 247.036 49.3005C247.036 49.3672 247.029 49.4405 247.016 49.5205C247.016 49.5872 247.016 49.6605 247.016 49.7405H237.876V48.6805H246.256L245.696 49.1005C245.696 48.3405 245.529 47.6672 245.196 47.0805C244.876 46.4805 244.436 46.0139 243.876 45.6805C243.316 45.3472 242.669 45.1805 241.936 45.1805C241.216 45.1805 240.569 45.3472 239.996 45.6805C239.422 46.0139 238.976 46.4805 238.656 47.0805C238.336 47.6805 238.176 48.3672 238.176 49.1405V49.3605C238.176 50.1605 238.349 50.8672 238.696 51.4805C239.056 52.0805 239.549 52.5539 240.176 52.9005C240.816 53.2339 241.542 53.4005 242.356 53.4005C242.996 53.4005 243.589 53.2872 244.136 53.0605C244.696 52.8339 245.176 52.4872 245.576 52.0205L246.376 52.9405C245.909 53.5005 245.322 53.9272 244.616 54.2205C243.922 54.5139 243.156 54.6605 242.316 54.6605ZM252.746 54.6605C251.879 54.6605 251.059 54.5405 250.286 54.3005C249.513 54.0472 248.906 53.7339 248.466 53.3605L249.106 52.2405C249.533 52.5605 250.079 52.8405 250.746 53.0805C251.413 53.3072 252.113 53.4205 252.846 53.4205C253.846 53.4205 254.566 53.2672 255.006 52.9605C255.446 52.6405 255.666 52.2205 255.666 51.7005C255.666 51.3139 255.539 51.0139 255.286 50.8005C255.046 50.5739 254.726 50.4072 254.326 50.3005C253.926 50.1805 253.479 50.0805 252.986 50.0005C252.493 49.9205 251.999 49.8272 251.506 49.7205C251.026 49.6139 250.586 49.4605 250.186 49.2605C249.786 49.0472 249.459 48.7605 249.206 48.4005C248.966 48.0405 248.846 47.5605 248.846 46.9605C248.846 46.3872 249.006 45.8739 249.326 45.4205C249.646 44.9672 250.113 44.6139 250.726 44.3605C251.353 44.0939 252.113 43.9605 253.006 43.9605C253.686 43.9605 254.366 44.0539 255.046 44.2405C255.726 44.4139 256.286 44.6472 256.726 44.9405L256.106 46.0805C255.639 45.7605 255.139 45.5339 254.606 45.4005C254.073 45.2539 253.539 45.1805 253.006 45.1805C252.059 45.1805 251.359 45.3472 250.906 45.6805C250.466 46.0005 250.246 46.4139 250.246 46.9205C250.246 47.3205 250.366 47.6339 250.606 47.8605C250.859 48.0872 251.186 48.2672 251.586 48.4005C251.999 48.5205 252.446 48.6205 252.926 48.7005C253.419 48.7805 253.906 48.8805 254.386 49.0005C254.879 49.1072 255.326 49.2605 255.726 49.4605C256.139 49.6472 256.466 49.9205 256.706 50.2805C256.959 50.6272 257.086 51.0872 257.086 51.6605C257.086 52.2739 256.913 52.8072 256.566 53.2605C256.233 53.7005 255.739 54.0472 255.086 54.3005C254.446 54.5405 253.666 54.6605 252.746 54.6605ZM267.746 54.6605C266.879 54.6605 266.059 54.5405 265.286 54.3005C264.513 54.0472 263.906 53.7339 263.466 53.3605L264.106 52.2405C264.533 52.5605 265.079 52.8405 265.746 53.0805C266.413 53.3072 267.113 53.4205 267.846 53.4205C268.846 53.4205 269.566 53.2672 270.006 52.9605C270.446 52.6405 270.666 52.2205 270.666 51.7005C270.666 51.3139 270.539 51.0139 270.286 50.8005C270.046 50.5739 269.726 50.4072 269.326 50.3005C268.926 50.1805 268.479 50.0805 267.986 50.0005C267.493 49.9205 266.999 49.8272 266.506 49.7205C266.026 49.6139 265.586 49.4605 265.186 49.2605C264.786 49.0472 264.459 48.7605 264.206 48.4005C263.966 48.0405 263.846 47.5605 263.846 46.9605C263.846 46.3872 264.006 45.8739 264.326 45.4205C264.646 44.9672 265.113 44.6139 265.726 44.3605C266.353 44.0939 267.113 43.9605 268.006 43.9605C268.686 43.9605 269.366 44.0539 270.046 44.2405C270.726 44.4139 271.286 44.6472 271.726 44.9405L271.106 46.0805C270.639 45.7605 270.139 45.5339 269.606 45.4005C269.073 45.2539 268.539 45.1805 268.006 45.1805C267.059 45.1805 266.359 45.3472 265.906 45.6805C265.466 46.0005 265.246 46.4139 265.246 46.9205C265.246 47.3205 265.366 47.6339 265.606 47.8605C265.859 48.0872 266.186 48.2672 266.586 48.4005C266.999 48.5205 267.446 48.6205 267.926 48.7005C268.419 48.7805 268.906 48.8805 269.386 49.0005C269.879 49.1072 270.326 49.2605 270.726 49.4605C271.139 49.6472 271.466 49.9205 271.706 50.2805C271.959 50.6272 272.086 51.0872 272.086 51.6605C272.086 52.2739 271.913 52.8072 271.566 53.2605C271.233 53.7005 270.739 54.0472 270.086 54.3005C269.446 54.5405 268.666 54.6605 267.746 54.6605ZM278.972 54.6605C277.958 54.6605 277.045 54.4339 276.232 53.9805C275.432 53.5139 274.798 52.8805 274.332 52.0805C273.865 51.2672 273.632 50.3405 273.632 49.3005C273.632 48.2472 273.865 47.3205 274.332 46.5205C274.798 45.7205 275.432 45.0939 276.232 44.6405C277.032 44.1872 277.945 43.9605 278.972 43.9605C280.012 43.9605 280.932 44.1872 281.732 44.6405C282.545 45.0939 283.178 45.7205 283.632 46.5205C284.098 47.3205 284.332 48.2472 284.332 49.3005C284.332 50.3405 284.098 51.2672 283.632 52.0805C283.178 52.8805 282.545 53.5139 281.732 53.9805C280.918 54.4339 279.998 54.6605 278.972 54.6605ZM278.972 53.4005C279.732 53.4005 280.405 53.2339 280.992 52.9005C281.578 52.5539 282.038 52.0739 282.372 51.4605C282.718 50.8339 282.892 50.1139 282.892 49.3005C282.892 48.4739 282.718 47.7539 282.372 47.1405C282.038 46.5272 281.578 46.0539 280.992 45.7205C280.405 45.3739 279.738 45.2005 278.992 45.2005C278.245 45.2005 277.578 45.3739 276.992 45.7205C276.405 46.0539 275.938 46.5272 275.592 47.1405C275.245 47.7539 275.072 48.4739 275.072 49.3005C275.072 50.1139 275.245 50.8339 275.592 51.4605C275.938 52.0739 276.405 52.5539 276.992 52.9005C277.578 53.2339 278.238 53.4005 278.972 53.4005ZM292.591 43.9605C293.444 43.9605 294.191 44.1272 294.831 44.4605C295.484 44.7805 295.991 45.2739 296.351 45.9405C296.724 46.6072 296.911 47.4472 296.911 48.4605V54.5605H295.491V48.6005C295.491 47.4939 295.211 46.6605 294.651 46.1005C294.104 45.5272 293.331 45.2405 292.331 45.2405C291.584 45.2405 290.931 45.3939 290.371 45.7005C289.824 45.9939 289.397 46.4272 289.091 47.0005C288.797 47.5605 288.651 48.2405 288.651 49.0405V54.5605H287.231V44.0605H288.591V46.9405L288.371 46.4005C288.704 45.6405 289.237 45.0472 289.971 44.6205C290.704 44.1805 291.577 43.9605 292.591 43.9605ZM304.066 54.6605C303.08 54.6605 302.32 54.3939 301.786 53.8605C301.253 53.3272 300.986 52.5739 300.986 51.6005V41.7405H302.406V51.5205C302.406 52.1339 302.56 52.6072 302.866 52.9405C303.186 53.2739 303.64 53.4405 304.226 53.4405C304.853 53.4405 305.373 53.2605 305.786 52.9005L306.286 53.9205C306.006 54.1739 305.666 54.3605 305.266 54.4805C304.88 54.6005 304.48 54.6605 304.066 54.6605ZM299.106 45.2405V44.0605H305.606V45.2405H299.106ZM319.526 54.6605C318.619 54.6605 317.799 54.4539 317.066 54.0405C316.332 53.6139 315.746 53.0072 315.306 52.2205C314.879 51.4205 314.666 50.4472 314.666 49.3005C314.666 48.1539 314.879 47.1872 315.306 46.4005C315.732 45.6005 316.312 44.9939 317.046 44.5805C317.779 44.1672 318.606 43.9605 319.526 43.9605C320.526 43.9605 321.419 44.1872 322.206 44.6405C323.006 45.0805 323.632 45.7072 324.086 46.5205C324.539 47.3205 324.766 48.2472 324.766 49.3005C324.766 50.3672 324.539 51.3005 324.086 52.1005C323.632 52.9005 323.006 53.5272 322.206 53.9805C321.419 54.4339 320.526 54.6605 319.526 54.6605ZM314.106 58.4405V44.0605H315.466V47.2205L315.326 49.3205L315.526 51.4405V58.4405H314.106ZM319.426 53.4005C320.172 53.4005 320.839 53.2339 321.426 52.9005C322.012 52.5539 322.479 52.0739 322.826 51.4605C323.172 50.8339 323.346 50.1139 323.346 49.3005C323.346 48.4872 323.172 47.7739 322.826 47.1605C322.479 46.5472 322.012 46.0672 321.426 45.7205C320.839 45.3739 320.172 45.2005 319.426 45.2005C318.679 45.2005 318.006 45.3739 317.406 45.7205C316.819 46.0672 316.352 46.5472 316.006 47.1605C315.672 47.7739 315.506 48.4872 315.506 49.3005C315.506 50.1139 315.672 50.8339 316.006 51.4605C316.352 52.0739 316.819 52.5539 317.406 52.9005C318.006 53.2339 318.679 53.4005 319.426 53.4005ZM327.66 54.5605V44.0605H329.02V46.9205L328.88 46.4205C329.174 45.6205 329.667 45.0139 330.36 44.6005C331.054 44.1739 331.914 43.9605 332.94 43.9605V45.3405C332.887 45.3405 332.834 45.3405 332.78 45.3405C332.727 45.3272 332.674 45.3205 332.62 45.3205C331.514 45.3205 330.647 45.6605 330.02 46.3405C329.394 47.0072 329.08 47.9605 329.08 49.2005V54.5605H327.66ZM339.894 54.6605C338.8 54.6605 337.84 54.4339 337.014 53.9805C336.187 53.5139 335.54 52.8805 335.074 52.0805C334.607 51.2672 334.374 50.3405 334.374 49.3005C334.374 48.2605 334.594 47.3405 335.034 46.5405C335.487 45.7405 336.1 45.1139 336.874 44.6605C337.66 44.1939 338.54 43.9605 339.514 43.9605C340.5 43.9605 341.374 44.1872 342.134 44.6405C342.907 45.0805 343.514 45.7072 343.954 46.5205C344.394 47.3205 344.614 48.2472 344.614 49.3005C344.614 49.3672 344.607 49.4405 344.594 49.5205C344.594 49.5872 344.594 49.6605 344.594 49.7405H335.454V48.6805H343.834L343.274 49.1005C343.274 48.3405 343.107 47.6672 342.774 47.0805C342.454 46.4805 342.014 46.0139 341.454 45.6805C340.894 45.3472 340.247 45.1805 339.514 45.1805C338.794 45.1805 338.147 45.3472 337.574 45.6805C337 46.0139 336.554 46.4805 336.234 47.0805C335.914 47.6805 335.754 48.3672 335.754 49.1405V49.3605C335.754 50.1605 335.927 50.8672 336.274 51.4805C336.634 52.0805 337.127 52.5539 337.754 52.9005C338.394 53.2339 339.12 53.4005 339.934 53.4005C340.574 53.4005 341.167 53.2872 341.714 53.0605C342.274 52.8339 342.754 52.4872 343.154 52.0205L343.954 52.9405C343.487 53.5005 342.9 53.9272 342.194 54.2205C341.5 54.5139 340.734 54.6605 339.894 54.6605ZM336.194 42.4205L338.774 39.9405H340.214L342.794 42.4205H341.474L338.934 40.3005H340.054L337.514 42.4205H336.194ZM350.824 54.6605C349.837 54.6605 349.077 54.3939 348.544 53.8605C348.011 53.3272 347.744 52.5739 347.744 51.6005V41.7405H349.164V51.5205C349.164 52.1339 349.317 52.6072 349.624 52.9405C349.944 53.2739 350.397 53.4405 350.984 53.4405C351.611 53.4405 352.131 53.2605 352.544 52.9005L353.044 53.9205C352.764 54.1739 352.424 54.3605 352.024 54.4805C351.637 54.6005 351.237 54.6605 350.824 54.6605ZM345.864 45.2405V44.0605H352.364V45.2405H345.864ZM359.718 54.6605C358.625 54.6605 357.665 54.4339 356.838 53.9805C356.011 53.5139 355.365 52.8805 354.898 52.0805C354.431 51.2672 354.198 50.3405 354.198 49.3005C354.198 48.2605 354.418 47.3405 354.858 46.5405C355.311 45.7405 355.925 45.1139 356.698 44.6605C357.485 44.1939 358.365 43.9605 359.338 43.9605C360.325 43.9605 361.198 44.1872 361.958 44.6405C362.731 45.0805 363.338 45.7072 363.778 46.5205C364.218 47.3205 364.438 48.2472 364.438 49.3005C364.438 49.3672 364.431 49.4405 364.418 49.5205C364.418 49.5872 364.418 49.6605 364.418 49.7405H355.278V48.6805H363.658L363.098 49.1005C363.098 48.3405 362.931 47.6672 362.598 47.0805C362.278 46.4805 361.838 46.0139 361.278 45.6805C360.718 45.3472 360.071 45.1805 359.338 45.1805C358.618 45.1805 357.971 45.3472 357.398 45.6805C356.825 46.0139 356.378 46.4805 356.058 47.0805C355.738 47.6805 355.578 48.3672 355.578 49.1405V49.3605C355.578 50.1605 355.751 50.8672 356.098 51.4805C356.458 52.0805 356.951 52.5539 357.578 52.9005C358.218 53.2339 358.945 53.4005 359.758 53.4005C360.398 53.4005 360.991 53.2872 361.538 53.0605C362.098 52.8339 362.578 52.4872 362.978 52.0205L363.778 52.9405C363.311 53.5005 362.725 53.9272 362.018 54.2205C361.325 54.5139 360.558 54.6605 359.718 54.6605ZM370.148 54.6605C369.282 54.6605 368.462 54.5405 367.688 54.3005C366.915 54.0472 366.308 53.7339 365.868 53.3605L366.508 52.2405C366.935 52.5605 367.482 52.8405 368.148 53.0805C368.815 53.3072 369.515 53.4205 370.248 53.4205C371.248 53.4205 371.968 53.2672 372.408 52.9605C372.848 52.6405 373.068 52.2205 373.068 51.7005C373.068 51.3139 372.942 51.0139 372.688 50.8005C372.448 50.5739 372.128 50.4072 371.728 50.3005C371.328 50.1805 370.882 50.0805 370.388 50.0005C369.895 49.9205 369.402 49.8272 368.908 49.7205C368.428 49.6139 367.988 49.4605 367.588 49.2605C367.188 49.0472 366.862 48.7605 366.608 48.4005C366.368 48.0405 366.248 47.5605 366.248 46.9605C366.248 46.3872 366.408 45.8739 366.728 45.4205C367.048 44.9672 367.515 44.6139 368.128 44.3605C368.755 44.0939 369.515 43.9605 370.408 43.9605C371.088 43.9605 371.768 44.0539 372.448 44.2405C373.128 44.4139 373.688 44.6472 374.128 44.9405L373.508 46.0805C373.042 45.7605 372.542 45.5339 372.008 45.4005C371.475 45.2539 370.942 45.1805 370.408 45.1805C369.462 45.1805 368.762 45.3472 368.308 45.6805C367.868 46.0005 367.648 46.4139 367.648 46.9205C367.648 47.3205 367.768 47.6339 368.008 47.8605C368.262 48.0872 368.588 48.2672 368.988 48.4005C369.402 48.5205 369.848 48.6205 370.328 48.7005C370.822 48.7805 371.308 48.8805 371.788 49.0005C372.282 49.1072 372.728 49.2605 373.128 49.4605C373.542 49.6472 373.868 49.9205 374.108 50.2805C374.362 50.6272 374.488 51.0872 374.488 51.6605C374.488 52.2739 374.315 52.8072 373.968 53.2605C373.635 53.7005 373.142 54.0472 372.488 54.3005C371.848 54.5405 371.068 54.6605 370.148 54.6605ZM382.388 50.3605L382.108 40.5605H383.788L383.488 50.3605H382.388ZM382.948 54.6605C382.655 54.6605 382.402 54.5605 382.188 54.3605C381.988 54.1472 381.888 53.9005 381.888 53.6205C381.888 53.3272 381.988 53.0872 382.188 52.9005C382.402 52.7005 382.655 52.6005 382.948 52.6005C383.255 52.6005 383.502 52.7005 383.688 52.9005C383.888 53.0872 383.988 53.3272 383.988 53.6205C383.988 53.9005 383.888 54.1472 383.688 54.3605C383.502 54.5605 383.255 54.6605 382.948 54.6605Z" fill="black"/>
<path d="M69.5148 27.5606C26.3256 20.1275 -24.6053 66.6667 19.5143 76.4905C63.6338 86.3142 100.885 67.6304 113.996 57.0605C124.322 48.2611 131.562 19.4812 102.666 20.4235" stroke="#F4D465" stroke-width="5"/>
</svg>
