<svg width="456" height="97" viewBox="0 0 456 97" fill="none" xmlns="http://www.w3.org/2000/svg">
<path d="M36.0795 46.64H42.8195V49.16H36.0795V46.64ZM36.3195 52.4H43.9395V55H33.0995V41H43.6795V43.6H36.3195V52.4ZM50.5802 55.16C49.3136 55.16 48.3269 54.84 47.6202 54.2C46.9136 53.5467 46.5602 52.58 46.5602 51.3V41.86H49.6802V51.26C49.6802 51.7133 49.8002 52.0667 50.0402 52.32C50.2802 52.56 50.6069 52.68 51.0202 52.68C51.5136 52.68 51.9336 52.5467 52.2802 52.28L53.1202 54.48C52.8002 54.7067 52.4136 54.88 51.9602 55C51.5202 55.1067 51.0602 55.16 50.5802 55.16ZM44.9002 46.88V44.48H52.3602V46.88H44.9002ZM61.4716 55V52.9L61.2716 52.44V48.68C61.2716 48.0133 61.065 47.4933 60.6516 47.12C60.2516 46.7467 59.6316 46.56 58.7916 46.56C58.2183 46.56 57.6516 46.6533 57.0916 46.84C56.545 47.0133 56.0783 47.2533 55.6916 47.56L54.5716 45.38C55.1583 44.9667 55.865 44.6467 56.6916 44.42C57.5183 44.1933 58.3583 44.08 59.2116 44.08C60.8516 44.08 62.125 44.4667 63.0316 45.24C63.9383 46.0133 64.3916 47.22 64.3916 48.86V55H61.4716ZM58.1916 55.16C57.3516 55.16 56.6316 55.02 56.0316 54.74C55.4316 54.4467 54.9716 54.0533 54.6516 53.56C54.3316 53.0667 54.1716 52.5133 54.1716 51.9C54.1716 51.26 54.325 50.7 54.6316 50.22C54.9516 49.74 55.4516 49.3667 56.1316 49.1C56.8116 48.82 57.6983 48.68 58.7916 48.68H61.6516V50.5H59.1316C58.3983 50.5 57.8916 50.62 57.6116 50.86C57.345 51.1 57.2116 51.4 57.2116 51.76C57.2116 52.16 57.365 52.48 57.6716 52.72C57.9916 52.9467 58.425 53.06 58.9716 53.06C59.4916 53.06 59.9583 52.94 60.3716 52.7C60.785 52.4467 61.085 52.08 61.2716 51.6L61.7516 53.04C61.525 53.7333 61.1116 54.26 60.5116 54.62C59.9116 54.98 59.1383 55.16 58.1916 55.16ZM73.5754 55.16C72.6687 55.16 71.8754 54.96 71.1954 54.56C70.5154 54.16 69.9821 53.5533 69.5954 52.74C69.2221 51.9133 69.0354 50.8733 69.0354 49.62C69.0354 48.3533 69.2154 47.3133 69.5754 46.5C69.9354 45.6867 70.4554 45.08 71.1354 44.68C71.8154 44.28 72.6287 44.08 73.5754 44.08C74.5887 44.08 75.4954 44.3133 76.2954 44.78C77.1087 45.2333 77.7487 45.8733 78.2154 46.7C78.6954 47.5267 78.9354 48.5 78.9354 49.62C78.9354 50.7533 78.6954 51.7333 78.2154 52.56C77.7487 53.3867 77.1087 54.0267 76.2954 54.48C75.4954 54.9333 74.5887 55.16 73.5754 55.16ZM67.2154 58.88V44.24H70.1954V46.44L70.1354 49.64L70.3354 52.82V58.88H67.2154ZM73.0354 52.6C73.5554 52.6 74.0154 52.48 74.4154 52.24C74.8287 52 75.1554 51.66 75.3954 51.22C75.6487 50.7667 75.7754 50.2333 75.7754 49.62C75.7754 48.9933 75.6487 48.46 75.3954 48.02C75.1554 47.58 74.8287 47.24 74.4154 47C74.0154 46.76 73.5554 46.64 73.0354 46.64C72.5154 46.64 72.0487 46.76 71.6354 47C71.2221 47.24 70.8954 47.58 70.6554 48.02C70.4154 48.46 70.2954 48.9933 70.2954 49.62C70.2954 50.2333 70.4154 50.7667 70.6554 51.22C70.8954 51.66 71.2221 52 71.6354 52.24C72.0487 52.48 72.5154 52.6 73.0354 52.6ZM86.364 55.16C85.1373 55.16 84.0573 54.92 83.124 54.44C82.204 53.96 81.4907 53.3067 80.984 52.48C80.4773 51.64 80.224 50.6867 80.224 49.62C80.224 48.54 80.4707 47.5867 80.964 46.76C81.4707 45.92 82.1573 45.2667 83.024 44.8C83.8907 44.32 84.8707 44.08 85.964 44.08C87.0173 44.08 87.964 44.3067 88.804 44.76C89.6573 45.2 90.3307 45.84 90.824 46.68C91.3173 47.5067 91.564 48.5 91.564 49.66C91.564 49.78 91.5573 49.92 91.544 50.08C91.5307 50.2267 91.5173 50.3667 91.504 50.5H82.764V48.68H89.864L88.664 49.22C88.664 48.66 88.5507 48.1733 88.324 47.76C88.0973 47.3467 87.784 47.0267 87.384 46.8C86.984 46.56 86.5173 46.44 85.984 46.44C85.4507 46.44 84.9773 46.56 84.564 46.8C84.164 47.0267 83.8507 47.3533 83.624 47.78C83.3973 48.1933 83.284 48.6867 83.284 49.26V49.74C83.284 50.3267 83.4107 50.8467 83.664 51.3C83.9307 51.74 84.2973 52.08 84.764 52.32C85.244 52.5467 85.804 52.66 86.444 52.66C87.0173 52.66 87.5173 52.5733 87.944 52.4C88.384 52.2267 88.784 51.9667 89.144 51.62L90.804 53.42C90.3107 53.98 89.6907 54.4133 88.944 54.72C88.1973 55.0133 87.3373 55.16 86.364 55.16ZM103.185 55.24C102.212 55.24 101.245 55.1133 100.285 54.86C99.3252 54.5933 98.5119 54.22 97.8452 53.74L99.1052 51.26C99.6386 51.6467 100.259 51.9533 100.965 52.18C101.672 52.4067 102.385 52.52 103.105 52.52C103.919 52.52 104.559 52.36 105.025 52.04C105.492 51.72 105.725 51.28 105.725 50.72C105.725 50.1867 105.519 49.7667 105.105 49.46C104.692 49.1533 104.025 49 103.105 49H101.625V46.86L105.525 42.44L105.885 43.6H98.5452V41H108.345V43.1L104.465 47.52L102.825 46.58H103.765C105.485 46.58 106.785 46.9667 107.665 47.74C108.545 48.5133 108.985 49.5067 108.985 50.72C108.985 51.5067 108.779 52.2467 108.365 52.94C107.952 53.62 107.319 54.1733 106.465 54.6C105.612 55.0267 104.519 55.24 103.185 55.24ZM117.985 47.98C117.452 47.98 116.992 47.8 116.605 47.44C116.232 47.0667 116.045 46.5933 116.045 46.02C116.045 45.4467 116.232 44.9867 116.605 44.64C116.992 44.28 117.452 44.1 117.985 44.1C118.532 44.1 118.992 44.28 119.365 44.64C119.739 44.9867 119.925 45.4467 119.925 46.02C119.925 46.5933 119.739 47.0667 119.365 47.44C118.992 47.8 118.532 47.98 117.985 47.98ZM117.985 55.16C117.452 55.16 116.992 54.98 116.605 54.62C116.232 54.2467 116.045 53.7733 116.045 53.2C116.045 52.6267 116.232 52.1667 116.605 51.82C116.992 51.46 117.452 51.28 117.985 51.28C118.532 51.28 118.992 51.46 119.365 51.82C119.739 52.1667 119.925 52.6267 119.925 53.2C119.925 53.7733 119.739 54.2467 119.365 54.62C118.992 54.98 118.532 55.16 117.985 55.16ZM132.524 55L126.324 41H127.924L133.724 54.18H132.844L138.684 41H140.184L133.984 55H132.524ZM141.857 55V44.5H143.277V55H141.857ZM142.577 42.18C142.284 42.18 142.037 42.08 141.837 41.88C141.637 41.68 141.537 41.44 141.537 41.16C141.537 40.88 141.637 40.6467 141.837 40.46C142.037 40.26 142.284 40.16 142.577 40.16C142.87 40.16 143.117 40.2533 143.317 40.44C143.517 40.6267 143.617 40.86 143.617 41.14C143.617 41.4333 143.517 41.68 143.317 41.88C143.13 42.08 142.884 42.18 142.577 42.18ZM150.048 55.1C149.181 55.1 148.361 54.98 147.588 54.74C146.815 54.4867 146.208 54.1733 145.768 53.8L146.408 52.68C146.835 53 147.381 53.28 148.048 53.52C148.715 53.7467 149.415 53.86 150.148 53.86C151.148 53.86 151.868 53.7067 152.308 53.4C152.748 53.08 152.968 52.66 152.968 52.14C152.968 51.7533 152.841 51.4533 152.588 51.24C152.348 51.0133 152.028 50.8467 151.628 50.74C151.228 50.62 150.781 50.52 150.288 50.44C149.795 50.36 149.301 50.2667 148.808 50.16C148.328 50.0533 147.888 49.9 147.488 49.7C147.088 49.4867 146.761 49.2 146.508 48.84C146.268 48.48 146.148 48 146.148 47.4C146.148 46.8267 146.308 46.3133 146.628 45.86C146.948 45.4067 147.415 45.0533 148.028 44.8C148.655 44.5333 149.415 44.4 150.308 44.4C150.988 44.4 151.668 44.4933 152.348 44.68C153.028 44.8533 153.588 45.0867 154.028 45.38L153.408 46.52C152.941 46.2 152.441 45.9733 151.908 45.84C151.375 45.6933 150.841 45.62 150.308 45.62C149.361 45.62 148.661 45.7867 148.208 46.12C147.768 46.44 147.548 46.8533 147.548 47.36C147.548 47.76 147.668 48.0733 147.908 48.3C148.161 48.5267 148.488 48.7067 148.888 48.84C149.301 48.96 149.748 49.06 150.228 49.14C150.721 49.22 151.208 49.32 151.688 49.44C152.181 49.5467 152.628 49.7 153.028 49.9C153.441 50.0867 153.768 50.36 154.008 50.72C154.261 51.0667 154.388 51.5267 154.388 52.1C154.388 52.7133 154.215 53.2467 153.868 53.7C153.535 54.14 153.041 54.4867 152.388 54.74C151.748 54.98 150.968 55.1 150.048 55.1ZM161.334 55.1C160.44 55.1 159.66 54.9333 158.994 54.6C158.327 54.2667 157.807 53.7667 157.434 53.1C157.074 52.4333 156.894 51.6 156.894 50.6V44.5H158.314V50.44C158.314 51.56 158.587 52.4067 159.134 52.98C159.694 53.54 160.474 53.82 161.474 53.82C162.207 53.82 162.84 53.6733 163.374 53.38C163.92 53.0733 164.334 52.6333 164.614 52.06C164.907 51.4867 165.054 50.8 165.054 50V44.5H166.474V55H165.114V52.12L165.334 52.64C165 53.4133 164.48 54.02 163.774 54.46C163.08 54.8867 162.267 55.1 161.334 55.1ZM177.011 55V52.68L176.951 52.3V48.42C176.951 47.5267 176.698 46.84 176.191 46.36C175.698 45.88 174.958 45.64 173.971 45.64C173.291 45.64 172.645 45.7533 172.031 45.98C171.418 46.2067 170.898 46.5067 170.471 46.88L169.831 45.82C170.365 45.3667 171.005 45.02 171.751 44.78C172.498 44.5267 173.285 44.4 174.111 44.4C175.471 44.4 176.518 44.74 177.251 45.42C177.998 46.0867 178.371 47.1067 178.371 48.48V55H177.011ZM173.391 55.1C172.605 55.1 171.918 54.9733 171.331 54.72C170.758 54.4533 170.318 54.0933 170.011 53.64C169.705 53.1733 169.551 52.64 169.551 52.04C169.551 51.4933 169.678 51 169.931 50.56C170.198 50.1067 170.625 49.7467 171.211 49.48C171.811 49.2 172.611 49.06 173.611 49.06H177.231V50.12H173.651C172.638 50.12 171.931 50.3 171.531 50.66C171.145 51.02 170.951 51.4667 170.951 52C170.951 52.6 171.185 53.08 171.651 53.44C172.118 53.8 172.771 53.98 173.611 53.98C174.411 53.98 175.098 53.8 175.671 53.44C176.258 53.0667 176.685 52.5333 176.951 51.84L177.271 52.82C177.005 53.5133 176.538 54.0667 175.871 54.48C175.218 54.8933 174.391 55.1 173.391 55.1ZM182.228 55V40.16H183.648V55H182.228ZM187.599 55V44.5H189.019V55H187.599ZM188.319 42.18C188.026 42.18 187.779 42.08 187.579 41.88C187.379 41.68 187.279 41.44 187.279 41.16C187.279 40.88 187.379 40.6467 187.579 40.46C187.779 40.26 188.026 40.16 188.319 40.16C188.612 40.16 188.859 40.2533 189.059 40.44C189.259 40.6267 189.359 40.86 189.359 41.14C189.359 41.4333 189.259 41.68 189.059 41.88C188.872 42.08 188.626 42.18 188.319 42.18ZM195.79 55.1C194.924 55.1 194.104 54.98 193.33 54.74C192.557 54.4867 191.95 54.1733 191.51 53.8L192.15 52.68C192.577 53 193.124 53.28 193.79 53.52C194.457 53.7467 195.157 53.86 195.89 53.86C196.89 53.86 197.61 53.7067 198.05 53.4C198.49 53.08 198.71 52.66 198.71 52.14C198.71 51.7533 198.584 51.4533 198.33 51.24C198.09 51.0133 197.77 50.8467 197.37 50.74C196.97 50.62 196.524 50.52 196.03 50.44C195.537 50.36 195.044 50.2667 194.55 50.16C194.07 50.0533 193.63 49.9 193.23 49.7C192.83 49.4867 192.504 49.2 192.25 48.84C192.01 48.48 191.89 48 191.89 47.4C191.89 46.8267 192.05 46.3133 192.37 45.86C192.69 45.4067 193.157 45.0533 193.77 44.8C194.397 44.5333 195.157 44.4 196.05 44.4C196.73 44.4 197.41 44.4933 198.09 44.68C198.77 44.8533 199.33 45.0867 199.77 45.38L199.15 46.52C198.684 46.2 198.184 45.9733 197.65 45.84C197.117 45.6933 196.584 45.62 196.05 45.62C195.104 45.62 194.404 45.7867 193.95 46.12C193.51 46.44 193.29 46.8533 193.29 47.36C193.29 47.76 193.41 48.0733 193.65 48.3C193.904 48.5267 194.23 48.7067 194.63 48.84C195.044 48.96 195.49 49.06 195.97 49.14C196.464 49.22 196.95 49.32 197.43 49.44C197.924 49.5467 198.37 49.7 198.77 49.9C199.184 50.0867 199.51 50.36 199.75 50.72C200.004 51.0667 200.13 51.5267 200.13 52.1C200.13 52.7133 199.957 53.2467 199.61 53.7C199.277 54.14 198.784 54.4867 198.13 54.74C197.49 54.98 196.71 55.1 195.79 55.1ZM207.196 55.1C206.103 55.1 205.143 54.8733 204.316 54.42C203.489 53.9533 202.843 53.32 202.376 52.52C201.909 51.7067 201.676 50.78 201.676 49.74C201.676 48.7 201.896 47.78 202.336 46.98C202.789 46.18 203.403 45.5533 204.176 45.1C204.963 44.6333 205.843 44.4 206.816 44.4C207.803 44.4 208.676 44.6267 209.436 45.08C210.209 45.52 210.816 46.1467 211.256 46.96C211.696 47.76 211.916 48.6867 211.916 49.74C211.916 49.8067 211.909 49.88 211.896 49.96C211.896 50.0267 211.896 50.1 211.896 50.18H202.756V49.12H211.136L210.576 49.54C210.576 48.78 210.409 48.1067 210.076 47.52C209.756 46.92 209.316 46.4533 208.756 46.12C208.196 45.7867 207.549 45.62 206.816 45.62C206.096 45.62 205.449 45.7867 204.876 46.12C204.303 46.4533 203.856 46.92 203.536 47.52C203.216 48.12 203.056 48.8067 203.056 49.58V49.8C203.056 50.6 203.229 51.3067 203.576 51.92C203.936 52.52 204.429 52.9933 205.056 53.34C205.696 53.6733 206.423 53.84 207.236 53.84C207.876 53.84 208.469 53.7267 209.016 53.5C209.576 53.2733 210.056 52.9267 210.456 52.46L211.256 53.38C210.789 53.94 210.203 54.3667 209.496 54.66C208.803 54.9533 208.036 55.1 207.196 55.1ZM213.569 55V54.06L220.569 45.2L220.869 45.68H213.689V44.5H221.989V45.42L215.009 54.3L214.649 53.82H222.129V55H213.569ZM232.858 55L228.198 44.5H229.678L233.958 54.24H233.258L237.598 44.5H238.998L234.318 55H232.858ZM244.985 55.1C243.971 55.1 243.058 54.8733 242.245 54.42C241.445 53.9533 240.811 53.32 240.345 52.52C239.878 51.7067 239.645 50.78 239.645 49.74C239.645 48.6867 239.878 47.76 240.345 46.96C240.811 46.16 241.445 45.5333 242.245 45.08C243.045 44.6267 243.958 44.4 244.985 44.4C246.025 44.4 246.945 44.6267 247.745 45.08C248.558 45.5333 249.191 46.16 249.645 46.96C250.111 47.76 250.345 48.6867 250.345 49.74C250.345 50.78 250.111 51.7067 249.645 52.52C249.191 53.32 248.558 53.9533 247.745 54.42C246.931 54.8733 246.011 55.1 244.985 55.1ZM244.985 53.84C245.745 53.84 246.418 53.6733 247.005 53.34C247.591 52.9933 248.051 52.5133 248.385 51.9C248.731 51.2733 248.905 50.5533 248.905 49.74C248.905 48.9133 248.731 48.1933 248.385 47.58C248.051 46.9667 247.591 46.4933 247.005 46.16C246.418 45.8133 245.751 45.64 245.005 45.64C244.258 45.64 243.591 45.8133 243.005 46.16C242.418 46.4933 241.951 46.9667 241.605 47.58C241.258 48.1933 241.085 48.9133 241.085 49.74C241.085 50.5533 241.258 51.2733 241.605 51.9C241.951 52.5133 242.418 52.9933 243.005 53.34C243.591 53.6733 244.251 53.84 244.985 53.84ZM256.564 55.1C255.577 55.1 254.817 54.8333 254.284 54.3C253.75 53.7667 253.484 53.0133 253.484 52.04V42.18H254.904V51.96C254.904 52.5733 255.057 53.0467 255.364 53.38C255.684 53.7133 256.137 53.88 256.724 53.88C257.35 53.88 257.87 53.7 258.284 53.34L258.784 54.36C258.504 54.6133 258.164 54.8 257.764 54.92C257.377 55.04 256.977 55.1 256.564 55.1ZM251.604 45.68V44.5H258.104V45.68H251.604ZM261.369 55V44.5H262.729V47.36L262.589 46.86C262.882 46.06 263.375 45.4533 264.069 45.04C264.762 44.6133 265.622 44.4 266.649 44.4V45.78C266.595 45.78 266.542 45.78 266.489 45.78C266.435 45.7667 266.382 45.76 266.329 45.76C265.222 45.76 264.355 46.1 263.729 46.78C263.102 47.4467 262.789 48.4 262.789 49.64V55H261.369ZM273.602 55.1C272.509 55.1 271.549 54.8733 270.722 54.42C269.895 53.9533 269.249 53.32 268.782 52.52C268.315 51.7067 268.082 50.78 268.082 49.74C268.082 48.7 268.302 47.78 268.742 46.98C269.195 46.18 269.809 45.5533 270.582 45.1C271.369 44.6333 272.249 44.4 273.222 44.4C274.209 44.4 275.082 44.6267 275.842 45.08C276.615 45.52 277.222 46.1467 277.662 46.96C278.102 47.76 278.322 48.6867 278.322 49.74C278.322 49.8067 278.315 49.88 278.302 49.96C278.302 50.0267 278.302 50.1 278.302 50.18H269.162V49.12H277.542L276.982 49.54C276.982 48.78 276.815 48.1067 276.482 47.52C276.162 46.92 275.722 46.4533 275.162 46.12C274.602 45.7867 273.955 45.62 273.222 45.62C272.502 45.62 271.855 45.7867 271.282 46.12C270.709 46.4533 270.262 46.92 269.942 47.52C269.622 48.12 269.462 48.8067 269.462 49.58V49.8C269.462 50.6 269.635 51.3067 269.982 51.92C270.342 52.52 270.835 52.9933 271.462 53.34C272.102 53.6733 272.829 53.84 273.642 53.84C274.282 53.84 274.875 53.7267 275.422 53.5C275.982 53.2733 276.462 52.9267 276.862 52.46L277.662 53.38C277.195 53.94 276.609 54.3667 275.902 54.66C275.209 54.9533 274.442 55.1 273.602 55.1ZM286.687 55V43.18C286.687 42.2467 286.96 41.4933 287.507 40.92C288.053 40.3467 288.84 40.06 289.867 40.06C290.267 40.06 290.653 40.1133 291.027 40.22C291.4 40.3267 291.713 40.4933 291.967 40.72L291.487 41.78C291.287 41.6067 291.053 41.48 290.787 41.4C290.52 41.3067 290.233 41.26 289.927 41.26C289.327 41.26 288.867 41.4267 288.547 41.76C288.227 42.0933 288.067 42.5867 288.067 43.24V44.84L288.107 45.5V55H286.687ZM284.807 45.68V44.5H291.307V45.68H284.807ZM299.609 55V52.68L299.549 52.3V48.42C299.549 47.5267 299.295 46.84 298.789 46.36C298.295 45.88 297.555 45.64 296.569 45.64C295.889 45.64 295.242 45.7533 294.629 45.98C294.015 46.2067 293.495 46.5067 293.069 46.88L292.429 45.82C292.962 45.3667 293.602 45.02 294.349 44.78C295.095 44.5267 295.882 44.4 296.709 44.4C298.069 44.4 299.115 44.74 299.849 45.42C300.595 46.0867 300.969 47.1067 300.969 48.48V55H299.609ZM295.989 55.1C295.202 55.1 294.515 54.9733 293.929 54.72C293.355 54.4533 292.915 54.0933 292.609 53.64C292.302 53.1733 292.149 52.64 292.149 52.04C292.149 51.4933 292.275 51 292.529 50.56C292.795 50.1067 293.222 49.7467 293.809 49.48C294.409 49.2 295.209 49.06 296.209 49.06H299.829V50.12H296.249C295.235 50.12 294.529 50.3 294.129 50.66C293.742 51.02 293.549 51.4667 293.549 52C293.549 52.6 293.782 53.08 294.249 53.44C294.715 53.8 295.369 53.98 296.209 53.98C297.009 53.98 297.695 53.8 298.269 53.44C298.855 53.0667 299.282 52.5333 299.549 51.84L299.869 52.82C299.602 53.5133 299.135 54.0667 298.469 54.48C297.815 54.8933 296.989 55.1 295.989 55.1ZM309.186 55.1C308.146 55.1 307.212 54.8733 306.386 54.42C305.572 53.9533 304.932 53.32 304.466 52.52C303.999 51.7067 303.766 50.78 303.766 49.74C303.766 48.6867 303.999 47.76 304.466 46.96C304.932 46.16 305.572 45.5333 306.386 45.08C307.212 44.6267 308.146 44.4 309.186 44.4C310.079 44.4 310.886 44.5733 311.606 44.92C312.326 45.2667 312.892 45.7867 313.306 46.48L312.246 47.2C311.886 46.6667 311.439 46.2733 310.906 46.02C310.372 45.7667 309.792 45.64 309.166 45.64C308.419 45.64 307.746 45.8133 307.146 46.16C306.546 46.4933 306.072 46.9667 305.726 47.58C305.379 48.1933 305.206 48.9133 305.206 49.74C305.206 50.5667 305.379 51.2867 305.726 51.9C306.072 52.5133 306.546 52.9933 307.146 53.34C307.746 53.6733 308.419 53.84 309.166 53.84C309.792 53.84 310.372 53.7133 310.906 53.46C311.439 53.2067 311.886 52.82 312.246 52.3L313.306 53.02C312.892 53.7 312.326 54.22 311.606 54.58C310.886 54.9267 310.079 55.1 309.186 55.1ZM319.532 55.1C318.546 55.1 317.786 54.8333 317.252 54.3C316.719 53.7667 316.452 53.0133 316.452 52.04V42.18H317.872V51.96C317.872 52.5733 318.026 53.0467 318.332 53.38C318.652 53.7133 319.106 53.88 319.692 53.88C320.319 53.88 320.839 53.7 321.252 53.34L321.752 54.36C321.472 54.6133 321.132 54.8 320.732 54.92C320.346 55.04 319.946 55.1 319.532 55.1ZM314.572 45.68V44.5H321.072V45.68H314.572ZM328.677 55.1C327.784 55.1 327.004 54.9333 326.337 54.6C325.671 54.2667 325.151 53.7667 324.777 53.1C324.417 52.4333 324.237 51.6 324.237 50.6V44.5H325.657V50.44C325.657 51.56 325.931 52.4067 326.477 52.98C327.037 53.54 327.817 53.82 328.817 53.82C329.551 53.82 330.184 53.6733 330.717 53.38C331.264 53.0733 331.677 52.6333 331.957 52.06C332.251 51.4867 332.397 50.8 332.397 50V44.5H333.817V55H332.457V52.12L332.677 52.64C332.344 53.4133 331.824 54.02 331.117 54.46C330.424 54.8867 329.611 55.1 328.677 55.1ZM337.775 55V44.5H339.135V47.36L338.995 46.86C339.288 46.06 339.782 45.4533 340.475 45.04C341.168 44.6133 342.028 44.4 343.055 44.4V45.78C343.002 45.78 342.948 45.78 342.895 45.78C342.842 45.7667 342.788 45.76 342.735 45.76C341.628 45.76 340.762 46.1 340.135 46.78C339.508 47.4467 339.195 48.4 339.195 49.64V55H337.775ZM350.008 55.1C348.915 55.1 347.955 54.8733 347.128 54.42C346.302 53.9533 345.655 53.32 345.188 52.52C344.722 51.7067 344.488 50.78 344.488 49.74C344.488 48.7 344.708 47.78 345.148 46.98C345.602 46.18 346.215 45.5533 346.988 45.1C347.775 44.6333 348.655 44.4 349.628 44.4C350.615 44.4 351.488 44.6267 352.248 45.08C353.022 45.52 353.628 46.1467 354.068 46.96C354.508 47.76 354.728 48.6867 354.728 49.74C354.728 49.8067 354.722 49.88 354.708 49.96C354.708 50.0267 354.708 50.1 354.708 50.18H345.568V49.12H353.948L353.388 49.54C353.388 48.78 353.222 48.1067 352.888 47.52C352.568 46.92 352.128 46.4533 351.568 46.12C351.008 45.7867 350.362 45.62 349.628 45.62C348.908 45.62 348.262 45.7867 347.688 46.12C347.115 46.4533 346.668 46.92 346.348 47.52C346.028 48.12 345.868 48.8067 345.868 49.58V49.8C345.868 50.6 346.042 51.3067 346.388 51.92C346.748 52.52 347.242 52.9933 347.868 53.34C348.508 53.6733 349.235 53.84 350.048 53.84C350.688 53.84 351.282 53.7267 351.828 53.5C352.388 53.2733 352.868 52.9267 353.268 52.46L354.068 53.38C353.602 53.94 353.015 54.3667 352.308 54.66C351.615 54.9533 350.848 55.1 350.008 55.1ZM369.433 55V52.68L369.373 52.3V48.42C369.373 47.5267 369.12 46.84 368.613 46.36C368.12 45.88 367.38 45.64 366.393 45.64C365.713 45.64 365.066 45.7533 364.453 45.98C363.84 46.2067 363.32 46.5067 362.893 46.88L362.253 45.82C362.786 45.3667 363.426 45.02 364.173 44.78C364.92 44.5267 365.706 44.4 366.533 44.4C367.893 44.4 368.94 44.74 369.673 45.42C370.42 46.0867 370.793 47.1067 370.793 48.48V55H369.433ZM365.813 55.1C365.026 55.1 364.34 54.9733 363.753 54.72C363.18 54.4533 362.74 54.0933 362.433 53.64C362.126 53.1733 361.973 52.64 361.973 52.04C361.973 51.4933 362.1 51 362.353 50.56C362.62 50.1067 363.046 49.7467 363.633 49.48C364.233 49.2 365.033 49.06 366.033 49.06H369.653V50.12H366.073C365.06 50.12 364.353 50.3 363.953 50.66C363.566 51.02 363.373 51.4667 363.373 52C363.373 52.6 363.606 53.08 364.073 53.44C364.54 53.8 365.193 53.98 366.033 53.98C366.833 53.98 367.52 53.8 368.093 53.44C368.68 53.0667 369.106 52.5333 369.373 51.84L369.693 52.82C369.426 53.5133 368.96 54.0667 368.293 54.48C367.64 54.8933 366.813 55.1 365.813 55.1ZM374.65 55V44.5H376.01V47.36L375.87 46.86C376.163 46.06 376.657 45.4533 377.35 45.04C378.043 44.6133 378.903 44.4 379.93 44.4V45.78C379.877 45.78 379.823 45.78 379.77 45.78C379.717 45.7667 379.663 45.76 379.61 45.76C378.503 45.76 377.637 46.1 377.01 46.78C376.383 47.4467 376.07 48.4 376.07 49.64V55H374.65ZM386.783 55.1C385.743 55.1 384.81 54.8733 383.983 54.42C383.17 53.9533 382.53 53.32 382.063 52.52C381.597 51.7067 381.363 50.78 381.363 49.74C381.363 48.6867 381.597 47.76 382.063 46.96C382.53 46.16 383.17 45.5333 383.983 45.08C384.81 44.6267 385.743 44.4 386.783 44.4C387.677 44.4 388.483 44.5733 389.203 44.92C389.923 45.2667 390.49 45.7867 390.903 46.48L389.843 47.2C389.483 46.6667 389.037 46.2733 388.503 46.02C387.97 45.7667 387.39 45.64 386.763 45.64C386.017 45.64 385.343 45.8133 384.743 46.16C384.143 46.4933 383.67 46.9667 383.323 47.58C382.977 48.1933 382.803 48.9133 382.803 49.74C382.803 50.5667 382.977 51.2867 383.323 51.9C383.67 52.5133 384.143 52.9933 384.743 53.34C385.343 53.6733 386.017 53.84 386.763 53.84C387.39 53.84 387.97 53.7133 388.503 53.46C389.037 53.2067 389.483 52.82 389.843 52.3L390.903 53.02C390.49 53.7 389.923 54.22 389.203 54.58C388.483 54.9267 387.677 55.1 386.783 55.1ZM398.897 44.4C399.75 44.4 400.497 44.5667 401.137 44.9C401.79 45.22 402.297 45.7133 402.657 46.38C403.03 47.0467 403.217 47.8867 403.217 48.9V55H401.797V49.04C401.797 47.9333 401.517 47.1 400.957 46.54C400.41 45.9667 399.637 45.68 398.637 45.68C397.89 45.68 397.237 45.8333 396.677 46.14C396.13 46.4333 395.703 46.8667 395.397 47.44C395.103 48 394.957 48.68 394.957 49.48V55H393.537V40.16H394.957V47.38L394.677 46.84C395.01 46.08 395.543 45.4867 396.277 45.06C397.01 44.62 397.883 44.4 398.897 44.4ZM407.052 55V44.5H408.472V55H407.052ZM407.772 42.18C407.479 42.18 407.232 42.08 407.032 41.88C406.832 41.68 406.732 41.44 406.732 41.16C406.732 40.88 406.832 40.6467 407.032 40.46C407.232 40.26 407.479 40.16 407.772 40.16C408.066 40.16 408.312 40.2533 408.512 40.44C408.712 40.6267 408.812 40.86 408.812 41.14C408.812 41.4333 408.712 41.68 408.512 41.88C408.326 42.08 408.079 42.18 407.772 42.18ZM415.123 55L410.463 44.5H411.943L416.223 54.24H415.523L419.863 44.5H421.263L416.583 55H415.123ZM427.43 55.1C426.337 55.1 425.377 54.8733 424.55 54.42C423.724 53.9533 423.077 53.32 422.61 52.52C422.144 51.7067 421.91 50.78 421.91 49.74C421.91 48.7 422.13 47.78 422.57 46.98C423.024 46.18 423.637 45.5533 424.41 45.1C425.197 44.6333 426.077 44.4 427.05 44.4C428.037 44.4 428.91 44.6267 429.67 45.08C430.444 45.52 431.05 46.1467 431.49 46.96C431.93 47.76 432.15 48.6867 432.15 49.74C432.15 49.8067 432.144 49.88 432.13 49.96C432.13 50.0267 432.13 50.1 432.13 50.18H422.99V49.12H431.37L430.81 49.54C430.81 48.78 430.644 48.1067 430.31 47.52C429.99 46.92 429.55 46.4533 428.99 46.12C428.43 45.7867 427.784 45.62 427.05 45.62C426.33 45.62 425.684 45.7867 425.11 46.12C424.537 46.4533 424.09 46.92 423.77 47.52C423.45 48.12 423.29 48.8067 423.29 49.58V49.8C423.29 50.6 423.464 51.3067 423.81 51.92C424.17 52.52 424.664 52.9933 425.29 53.34C425.93 53.6733 426.657 53.84 427.47 53.84C428.11 53.84 428.704 53.7267 429.25 53.5C429.81 53.2733 430.29 52.9267 430.69 52.46L431.49 53.38C431.024 53.94 430.437 54.3667 429.73 54.66C429.037 54.9533 428.27 55.1 427.43 55.1ZM425.73 42.86L428.47 40.38H430.37L427.13 42.86H425.73ZM439.501 55.1C438.407 55.1 437.447 54.8733 436.621 54.42C435.794 53.9533 435.147 53.32 434.681 52.52C434.214 51.7067 433.981 50.78 433.981 49.74C433.981 48.7 434.201 47.78 434.641 46.98C435.094 46.18 435.707 45.5533 436.481 45.1C437.267 44.6333 438.147 44.4 439.121 44.4C440.107 44.4 440.981 44.6267 441.741 45.08C442.514 45.52 443.121 46.1467 443.561 46.96C444.001 47.76 444.221 48.6867 444.221 49.74C444.221 49.8067 444.214 49.88 444.201 49.96C444.201 50.0267 444.201 50.1 444.201 50.18H435.061V49.12H443.441L442.881 49.54C442.881 48.78 442.714 48.1067 442.381 47.52C442.061 46.92 441.621 46.4533 441.061 46.12C440.501 45.7867 439.854 45.62 439.121 45.62C438.401 45.62 437.754 45.7867 437.181 46.12C436.607 46.4533 436.161 46.92 435.841 47.52C435.521 48.12 435.361 48.8067 435.361 49.58V49.8C435.361 50.6 435.534 51.3067 435.881 51.92C436.241 52.52 436.734 52.9933 437.361 53.34C438.001 53.6733 438.727 53.84 439.541 53.84C440.181 53.84 440.774 53.7267 441.321 53.5C441.881 53.2733 442.361 52.9267 442.761 52.46L443.561 53.38C443.094 53.94 442.507 54.3667 441.801 54.66C441.107 54.9533 440.341 55.1 439.501 55.1ZM452.405 50.8L452.125 41H453.805L453.505 50.8H452.405ZM452.965 55.1C452.672 55.1 452.419 55 452.205 54.8C452.005 54.5867 451.905 54.34 451.905 54.06C451.905 53.7667 452.005 53.5267 452.205 53.34C452.419 53.14 452.672 53.04 452.965 53.04C453.272 53.04 453.519 53.14 453.705 53.34C453.905 53.5267 454.005 53.7667 454.005 54.06C454.005 54.34 453.905 54.5867 453.705 54.8C453.519 55 453.272 55.1 452.965 55.1Z" fill="black"/>
<path d="M69.5148 27.5606C26.3256 20.1275 -24.6053 66.6667 19.5143 76.4905C63.6338 86.3142 100.885 67.6304 113.996 57.0605C124.322 48.2611 131.562 19.4812 102.666 20.4235" stroke="#F4D465" stroke-width="5"/>
</svg>
